{
.appVersion = "3135";
.formatVersion = 3;
DisplayStrings = (
"2"
);
date = "2022-05-17 03:04:17 +0000";
familyName = "Teyvat Black";
featurePrefixes = (
{
automatic = 1;
code = "languagesystem DFLT dflt;
";
name = Languagesystems;
}
);
features = (
{
automatic = 1;
code = "";
tag = kern;
}
);
fontMaster = (
{
id = m01;
metricValues = (
{
pos = 1500;
},
{
pos = 1250;
},
{
},
{
pos = -250;
}
);
name = Regular;
}
);
glyphs = (
{
glyphname = A;
lastChange = "2023-05-31 10:36:05 +0000";
layers = (
{
layerId = m01;
shapes = (
{
closed = 1;
nodes = (
(672,164,o),
(668,167,o),
(663,169,c),
(699,216,ls),
(701,218,o),
(707,226,o),
(718,239,c),
(802,324,l),
(802,324,o),
(804,326,o),
(804,326,c),
(829,347,l),
(829,330,o),
(826,319,o),
(820,314,cs),
(814,309,o),
(800,296,o),
(778,274,cs),
(716,207,ls),
(705,194,o),
(687,169,o),
(675,161,c)
);
},
{
closed = 1;
nodes = (
(760,823,o),
(793,813,o),
(815,792,cs),
(824,783,o),
(829,773,o),
(829,761,cs),
(829,414,ls),
(829,407,o),
(822,398,o),
(808,385,cs),
(794,372,o),
(785,364,o),
(780,359,cs),
(746,323,ls),
(745,322,o),
(745,322,o),
(745,322,c),
(744,321,o),
(744,321,o),
(744,321,c),
(652,222,l),
(639,206,o),
(631,195,o),
(630,190,c),
(618,190,o),
(589,200,o),
(543,221,cs),
(497,241,o),
(468,254,o),
(455,259,cs),
(312,303,ls),
(307,304,o),
(301,306,o),
(295,309,cs),
(289,311,o),
(286,321,o),
(286,339,cs),
(286,769,ls),
(286,809,o),
(309,816,o),
(336,832,cs),
(348,838,o),
(355,845,o),
(357,852,c),
(318,852,o),
(283,860,o),
(254,877,cs),
(224,894,o),
(196,909,o),
(170,923,c),
(164,919,o),
(158,915,o),
(153,910,cs),
(147,905,o),
(141,900,o),
(135,896,cs),
(127,889,o),
(126,888,o),
(119,883,cs),
(110,876,o),
(96,866,o),
(76,852,cs),
(55,837,o),
(42,827,o),
(36,821,c),
(33,816,o),
(31,813,o),
(30,811,c),
(113,811,o),
(154,774,o),
(154,699,cs),
(154,269,ls),
(154,252,o),
(152,238,o),
(148,227,cs),
(144,216,o),
(142,204,o),
(142,190,c),
(211,190,o),
(241,183,o),
(301,159,cs),
(600,32,l),
(625,19,o),
(648,12,o),
(667,12,c),
(687,40,o),
(771,141,o),
(806,168,cs),
(838,192,o),
(859,211,o),
(868,225,cs),
(877,238,o),
(913,261,o),
(974,294,c),
(963,317,o),
(957,353,o),
(957,401,cs),
(957,428,o),
(956,456,o),
(954,484,cs),
(952,512,o),
(952,541,o),
(953,571,cs),
(953,581,o),
(954,589,o),
(955,594,cs),
(956,599,o),
(957,608,o),
(957,620,cs),
(957,666,o),
(958,699,o),
(961,720,cs),
(962,737,o),
(962,754,o),
(961,771,cs),
(960,788,o),
(964,801,o),
(974,810,cs),
(983,818,o),
(996,824,o),
(1011,828,cs),
(1026,832,o),
(1037,839,o),
(1044,848,c),
(1037,857,o),
(1031,861,o),
(1024,860,cs),
(1017,859,o),
(1007,861,o),
(995,865,cs),
(975,871,o),
(958,878,o),
(944,885,cs),
(929,892,o),
(913,899,o),
(896,907,cs),
(887,911,o),
(879,915,o),
(871,918,cs),
(863,921,o),
(856,925,o),
(849,931,c),
(780,880,ls),
(772,874,o),
(760,866,o),
(744,855,cs),
(728,844,o),
(719,833,o),
(717,823,c)
);
},
{
closed = 1;
nodes = (
(447,1136,o),
(466,1118,o),
(493,1100,cs),
(519,1081,o),
(537,1065,o),
(547,1051,c),
(542,1026,o),
(509,1003,o),
(490,988,cs),
(469,972,o),
(442,951,o),
(427,931,c),
(440,924,o),
(464,911,o),
(497,894,cs),
(530,876,o),
(549,862,o),
(556,852,c),
(552,846,o),
(547,841,o),
(540,837,cs),
(533,832,o),
(525,825,o),
(518,815,c),
(521,810,o),
(528,805,o),
(539,798,c),
(672,922,ls),
(688,938,o),
(699,947,o),
(705,949,cs),
(711,950,o),
(716,954,o),
(721,960,c),
(719,965,o),
(708,974,o),
(689,986,cs),
(676,994,o),
(670,998,o),
(672,997,cs),
(613,1026,ls),
(593,1037,o),
(581,1044,o),
(576,1047,c),
(587,1067,o),
(604,1086,o),
(627,1103,cs),
(650,1120,o),
(665,1133,o),
(671,1142,c),
(668,1147,o),
(665,1152,o),
(661,1156,cs),
(560,1241,l),
(467,1177,ls),
(461,1172,o),
(456,1168,o),
(451,1165,cs),
(446,1162,o),
(440,1158,o),
(435,1154,c)
);
}
);
width = 1094;
}
);
unicode = (65,97);
},
{
glyphname = B;
lastChange = "2023-03-17 09:49:26 +0000";
layers = (
{
layerId = m01;
shapes = (
{
closed = 1;
nodes = (
(530,1112,o),
(500,1116,o),
(475,1125,cs),
(449,1133,o),
(422,1141,o),
(394,1149,cs),
(207,1200,o),
(261,1228,o),
(72,1084,cs),
(64,1077,o),
(60,1067,o),
(60,1054,c),
(84,1060,o),
(95,1064,o),
(92,1067,cs),
(89,1070,o),
(117,1064,o),
(175,1049,cs),
(232,1033,o),
(369,994,o),
(413,1003,cs),
(436,1007,o),
(458,1017,o),
(480,1032,cs),
(490,1039,o),
(499,1045,o),
(508,1052,cs),
(516,1058,o),
(525,1065,o),
(535,1072,cs),
(562,1093,o),
(581,1102,o),
(593,1099,cs),
(697,1074,o),
(697,1078,o),
(697,914,cs),
(697,879,o),
(698,847,o),
(699,818,cs),
(700,789,o),
(701,757,o),
(701,723,cs),
(701,666,o),
(703,553,o),
(680,509,cs),
(677,502,o),
(668,494,o),
(655,485,cs),
(648,479,o),
(638,472,o),
(625,463,cs),
(612,454,o),
(604,446,o),
(602,438,c),
(614,438,o),
(634,434,o),
(662,427,cs),
(691,419,o),
(709,415,o),
(716,414,cs),
(723,413,o),
(742,406,o),
(773,394,cs),
(818,375,o),
(846,370,o),
(856,379,cs),
(866,387,o),
(907,405,o),
(978,434,cs),
(991,439,o),
(1019,447,o),
(1024,463,c),
(959,463,o),
(914,471,o),
(888,488,cs),
(875,495,o),
(864,511,o),
(856,534,cs),
(847,557,o),
(844,612,o),
(845,697,cs),
(846,782,o),
(846,840,o),
(846,872,cs),
(846,928,o),
(844,1042,o),
(887,1067,cs),
(964,1110,l),
(969,1114,o),
(973,1119,o),
(975,1125,c),
(923,1125,o),
(788,1164,o),
(751,1183,cs),
(734,1191,o),
(724,1194,o),
(722,1192,cs),
(720,1189,o),
(700,1177,o),
(662,1156,cs),
(654,1152,o),
(638,1144,o),
(614,1131,cs),
(589,1118,o),
(573,1112,o),
(565,1112,cs)
);
},
{
closed = 1;
nodes = (
(119,701,o),
(139,705,o),
(139,709,c),
(138,712,o),
(141,663,o),
(147,562,cs),
(147,548,o),
(147,534,o),
(147,520,cs),
(146,506,o),
(146,492,o),
(147,479,cs),
(153,324,l),
(155,309,o),
(155,296,o),
(154,285,cs),
(152,274,o),
(151,261,o),
(151,248,cs),
(148,193,o),
(132,168,o),
(105,128,c),
(180,121,o),
(240,112,o),
(283,102,cs),
(449,61,l),
(459,61,o),
(469,65,o),
(480,74,cs),
(491,82,o),
(500,89,o),
(508,94,cs),
(536,113,o),
(553,127,o),
(560,136,cs),
(567,145,o),
(595,163,o),
(646,191,cs),
(665,202,o),
(676,208,o),
(677,210,c),
(671,219,o),
(665,223,o),
(658,223,cs),
(651,222,o),
(636,216,o),
(612,205,cs),
(577,188,o),
(560,180,o),
(559,181,c),
(558,181,o),
(537,185,o),
(498,194,cs),
(488,196,o),
(477,198,o),
(466,200,cs),
(455,201,o),
(445,203,o),
(436,205,cs),
(420,208,o),
(418,208,o),
(405,212,c),
(308,227,l),
(308,616,ls),
(308,635,o),
(309,652,o),
(311,667,cs),
(313,682,o),
(315,698,o),
(317,715,c),
(348,698,o),
(470,655,o),
(506,687,cs),
(509,689,o),
(515,695,o),
(524,706,cs),
(543,727,o),
(557,741,o),
(567,746,cs),
(577,751,o),
(585,762,o),
(592,779,cs),
(595,786,o),
(596,791,o),
(596,792,cs),
(596,793,o),
(583,791,o),
(556,786,cs),
(540,783,o),
(530,781,o),
(526,782,cs),
(521,783,o),
(511,784,o),
(495,785,cs),
(469,787,o),
(437,794,o),
(400,806,cs),
(362,817,o),
(335,820,o),
(320,815,cs),
(313,812,o),
(305,808,o),
(298,803,cs),
(291,797,o),
(283,793,o),
(275,790,cs),
(258,782,o),
(242,775,o),
(227,768,cs),
(212,761,o),
(195,753,o),
(178,746,cs),
(98,718,ls),
(87,714,o),
(81,707,o),
(80,698,c)
);
},
{
closed = 1;
nodes = (
(345,488,o),
(390,474,o),
(403,454,c),
(387,450,o),
(321,408,o),
(317,388,c),
(336,383,o),
(353,378,o),
(369,371,cs),
(374,368,o),
(382,364,o),
(393,357,cs),
(404,350,o),
(412,347,o),
(416,347,cs),
(439,347,o),
(506,390,o),
(515,405,c),
(510,410,o),
(496,420,o),
(472,433,cs),
(447,444,o),
(432,453,o),
(428,459,c),
(445,459,o),
(506,499,o),
(515,512,c),
(509,520,o),
(494,530,o),
(469,541,cs),
(444,552,o),
(427,562,o),
(416,570,c),
(396,559,o),
(322,517,o),
(317,496,c)
);
}
);
width = 1034;
}
);
unicode = (66,98);
},
{
glyphname = C;
lastChange = "2023-03-17 09:49:49 +0000";
layers = (
{
layerId = m01;
shapes = (
{
closed = 1;
nodes = (
(272,1092,l),
(260,1096,o),
(255,1100,o),
(258,1103,cs),
(260,1106,o),
(260,1110,o),
(258,1115,c),
(226,1111,o),
(198,1089,o),
(175,1073,cs),
(154,1058,o),
(131,1048,o),
(108,1041,cs),
(84,1034,o),
(63,1026,o),
(46,1017,cs),
(39,1013,o),
(35,1008,o),
(34,1003,c),
(43,1001,o),
(52,998,o),
(59,995,cs),
(66,991,o),
(76,988,o),
(88,986,cs),
(98,984,o),
(109,983,o),
(121,982,cs),
(133,981,o),
(144,980,o),
(154,978,c),
(152,884,l),
(149,865,o),
(149,832,o),
(152,785,cs),
(154,738,o),
(151,710,o),
(143,700,cs),
(135,690,o),
(126,681,o),
(115,672,cs),
(104,663,o),
(95,653,o),
(87,644,cs),
(70,624,l),
(69,624,o),
(68,623,o),
(68,622,c),
(64,618,ls),
(63,617,o),
(62,616,o),
(62,616,c),
(47,601,o),
(38,591,o),
(34,585,c),
(36,578,o),
(41,569,o),
(50,560,c),
(96,504,o),
(110,468,o),
(93,453,cs),
(75,437,o),
(54,411,o),
(30,374,c),
(45,351,o),
(55,339,o),
(59,337,c),
(96,346,o),
(163,408,o),
(187,440,cs),
(257,530,o),
(284,579,o),
(269,586,cs),
(253,593,o),
(245,607,o),
(245,627,cs),
(245,974,ls),
(245,980,o),
(250,985,o),
(261,988,cs),
(282,994,o),
(301,1000,o),
(320,1005,cs),
(338,1010,o),
(358,1017,o),
(379,1027,cs),
(411,1042,o),
(435,1030,o),
(476,1014,cs),
(563,978,o),
(647,920,o),
(728,840,c),
(796,763,l),
(805,751,o),
(814,739,o),
(824,727,cs),
(833,715,o),
(842,702,o),
(850,689,c),
(839,688,o),
(832,686,o),
(830,683,cs),
(828,680,o),
(824,676,o),
(817,672,cs),
(788,655,o),
(742,629,o),
(734,594,c),
(737,595,o),
(747,600,o),
(764,609,cs),
(794,624,o),
(835,631,o),
(887,631,c),
(898,608,o),
(906,590,o),
(910,576,cs),
(925,511,o),
(922,442,o),
(901,369,cs),
(887,323,o),
(870,286,o),
(850,258,cs),
(817,213,o),
(770,163,o),
(713,151,cs),
(628,132,o),
(587,120,o),
(499,143,cs),
(421,162,o),
(366,202,o),
(333,263,cs),
(328,274,o),
(324,281,o),
(320,292,c),
(308,285,o),
(296,280,o),
(285,277,cs),
(278,274,o),
(273,271,o),
(268,269,c),
(252,256,ls),
(228,234,o),
(191,216,o),
(141,203,cs),
(90,190,o),
(60,177,o),
(50,164,cs),
(45,157,o),
(42,150,o),
(42,143,c),
(49,144,o),
(53,146,o),
(56,147,cs),
(58,148,o),
(63,149,o),
(71,151,c),
(130,155,ls),
(137,155,o),
(146,150,o),
(155,141,cs),
(164,132,o),
(175,122,o),
(186,113,cs),
(271,34,o),
(369,31,o),
(486,31,cs),
(569,31,o),
(637,58,o),
(705,93,cs),
(786,132,o),
(850,187,o),
(896,258,cs),
(963,358,o),
(1000,433,o),
(1007,560,c),
(1007,627,l),
(1026,625,o),
(1042,618,o),
(1057,605,cs),
(1071,592,o),
(1085,584,o),
(1098,581,c),
(1098,624,o),
(1107,653,o),
(1125,669,cs),
(1143,684,o),
(1155,702,o),
(1160,722,c),
(991,722,l),
(982,755,o),
(965,795,o),
(939,840,cs),
(928,857,o),
(916,873,o),
(903,888,cs),
(890,903,o),
(877,918,o),
(865,935,cs),
(857,945,o),
(848,955,o),
(837,965,cs),
(826,975,o),
(816,985,o),
(807,994,cs),
(792,1009,o),
(772,1027,o),
(749,1047,cs),
(740,1054,o),
(729,1063,o),
(716,1072,cs),
(631,1132,l),
(624,1139,o),
(619,1144,o),
(617,1147,c),
(603,1162,o),
(599,1175,o),
(606,1188,cs),
(612,1201,o),
(616,1215,o),
(618,1231,c),
(601,1222,o),
(589,1216,o),
(582,1215,cs),
(575,1213,o),
(565,1205,o),
(551,1190,cs),
(534,1173,o),
(511,1158,o),
(484,1145,cs),
(447,1126,o),
(361,1086,o),
(320,1086,c)
);
},
{
closed = 1;
nodes = (
(199,978,o),
(209,976,o),
(209,972,cs),
(208,967,o),
(208,920,o),
(208,829,cs),
(208,799,o),
(208,769,o),
(208,740,cs),
(208,711,o),
(208,681,o),
(208,652,c),
(191,663,o),
(183,683,o),
(183,713,cs),
(183,728,o),
(183,744,o),
(183,759,cs),
(183,774,o),
(183,789,o),
(183,805,cs),
(183,822,o),
(182,836,o),
(181,847,cs),
(180,858,o),
(179,871,o),
(179,887,cs),
(179,902,o),
(179,918,o),
(179,933,cs),
(179,948,o),
(179,963,o),
(179,978,c)
);
}
);
width = 1180;
}
);
unicode = (67,99);
},
{
glyphname = D;
lastChange = "2023-05-01 14:09:14 +0000";
layers = (
{
layerId = m01;
shapes = (
{
closed = 1;
nodes = (
(313,863,o),
(313,888,o),
(312,912,cs),
(311,935,o),
(314,959,o),
(320,984,cs),
(322,993,o),
(324,1000,o),
(327,1005,cs),
(330,1010,o),
(332,1016,o),
(334,1024,c),
(344,1022,o),
(369,1013,o),
(408,996,cs),
(447,979,o),
(479,966,o),
(504,959,cs),
(516,955,o),
(524,951,o),
(528,946,c),
(512,942,o),
(473,923,o),
(411,890,cs),
(349,856,o),
(316,839,o),
(313,838,c)
);
},
{
closed = 1;
nodes = (
(45,932,o),
(59,933,o),
(82,941,cs),
(90,943,o),
(98,946,o),
(105,950,cs),
(112,953,o),
(119,956,o),
(127,958,c),
(137,942,o),
(142,922,o),
(141,898,cs),
(140,873,o),
(139,846,o),
(139,817,cs),
(139,350,l),
(142,323,o),
(199,291,o),
(220,278,cs),
(275,241,o),
(314,223,o),
(370,195,cs),
(401,179,o),
(517,131,o),
(541,131,cs),
(554,131,o),
(635,168,o),
(652,176,cs),
(705,202,ls),
(710,204,o),
(714,206,o),
(717,208,cs),
(720,210,o),
(725,212,o),
(730,215,cs),
(743,221,o),
(750,227,o),
(752,234,c),
(721,234,o),
(702,231,o),
(695,226,cs),
(687,220,o),
(650,230,o),
(583,255,cs),
(543,270,o),
(313,376,o),
(313,408,cs),
(313,784,ls),
(313,788,o),
(326,799,o),
(352,816,c),
(585,939,ls),
(600,946,o),
(633,962,o),
(686,987,cs),
(739,1012,o),
(771,1024,o),
(783,1023,cs),
(808,1020,o),
(826,1014,o),
(836,1005,cs),
(849,993,o),
(858,976,o),
(861,955,cs),
(864,936,o),
(864,913,o),
(863,887,cs),
(861,861,o),
(862,837,o),
(865,815,cs),
(871,768,o),
(868,689,o),
(868,371,cs),
(868,339,o),
(859,264,o),
(848,245,cs),
(844,238,o),
(830,227,o),
(807,212,cs),
(786,196,o),
(773,184,o),
(768,176,c),
(809,172,o),
(850,163,o),
(891,149,cs),
(971,122,o),
(1010,110,o),
(1008,111,cs),
(1006,112,o),
(1054,133,o),
(1152,174,cs),
(1179,185,o),
(1193,194,o),
(1195,201,c),
(1087,201,o),
(1013,210,o),
(1013,337,cs),
(1013,797,ls),
(1013,844,o),
(1012,970,o),
(1051,994,c),
(1145,1045,l),
(1141,1050,o),
(1123,1055,o),
(1091,1061,cs),
(1067,1065,o),
(1054,1069,o),
(1031,1076,cs),
(947,1100,ls),
(866,1124,o),
(928,1137,o),
(828,1084,cs),
(744,1044,ls),
(732,1039,o),
(728,1037,o),
(731,1037,cs),
(705,1037,o),
(656,1052,o),
(585,1081,cs),
(513,1110,o),
(472,1126,o),
(461,1127,cs),
(455,1127,o),
(430,1116,o),
(387,1093,cs),
(344,1070,o),
(314,1055,o),
(298,1048,cs),
(229,1017,o),
(153,982,o),
(82,958,cs),
(57,949,o),
(43,942,o),
(40,937,c)
);
},
{
closed = 1;
nodes = (
(849,-40,o),
(865,-45,o),
(879,-52,cs),
(935,-80,o),
(922,-91,o),
(987,-51,cs),
(1012,-36,o),
(1026,-23,o),
(1029,-14,c),
(1017,-12,o),
(1000,-3,o),
(978,12,cs),
(955,27,o),
(938,35,o),
(926,35,cs),
(923,35,o),
(835,-15,o),
(830,-35,c)
);
}
);
width = 1205;
}
);
unicode = (68,100);
},
{
glyphname = E;
lastChange = "2023-03-17 09:50:17 +0000";
layers = (
{
layerId = m01;
shapes = (
{
closed = 1;
nodes = (
(294,1086,o),
(279,1088,o),
(266,1092,cs),
(253,1096,o),
(238,1099,o),
(223,1100,cs),
(210,1101,o),
(199,1097,o),
(189,1088,cs),
(179,1079,o),
(170,1071,o),
(162,1065,cs),
(125,1041,o),
(95,1028,o),
(72,1026,cs),
(48,1023,o),
(34,1014,o),
(30,998,c),
(36,989,o),
(55,982,o),
(87,977,cs),
(166,961,o),
(225,973,o),
(297,997,cs),
(328,1007,o),
(350,1016,o),
(365,1025,cs),
(380,1033,o),
(397,1034,o),
(417,1029,cs),
(540,997,o),
(635,914,o),
(719,830,c),
(722,826,o),
(726,823,o),
(729,820,cs),
(732,817,o),
(735,813,o),
(739,809,cs),
(744,804,o),
(747,801,o),
(749,798,cs),
(751,795,o),
(754,791,o),
(758,787,cs),
(799,740,l),
(813,718,o),
(830,694,o),
(849,669,cs),
(868,643,o),
(882,614,o),
(889,582,cs),
(906,498,o),
(900,443,o),
(877,363,cs),
(861,311,o),
(861,315,o),
(840,276,cs),
(776,160,o),
(683,134,o),
(556,134,cs),
(451,134,o),
(376,175,o),
(331,256,cs),
(327,263,o),
(324,269,o),
(323,274,cs),
(321,279,o),
(319,285,o),
(316,291,c),
(301,284,o),
(290,279,o),
(281,276,cs),
(272,273,o),
(261,266,o),
(249,255,cs),
(220,227,o),
(143,201,o),
(103,189,cs),
(72,180,o),
(53,168,o),
(48,154,cs),
(45,147,o),
(53,146,o),
(71,151,cs),
(114,161,o),
(140,159,o),
(151,144,cs),
(161,129,o),
(183,110,o),
(217,88,cs),
(226,82,o),
(236,76,o),
(248,70,c),
(329,21,o),
(485,19,o),
(580,47,cs),
(703,83,o),
(825,172,o),
(890,280,c),
(913,323,ls),
(927,346,o),
(936,361,o),
(939,368,cs),
(983,471,o),
(997,603,o),
(969,715,cs),
(945,803,o),
(893,875,o),
(836,944,cs),
(797,990,o),
(751,1033,o),
(697,1072,cs),
(642,1111,o),
(614,1133,o),
(612,1137,c),
(584,1169,o),
(582,1175,o),
(606,1226,c),
(583,1224,o),
(559,1211,o),
(536,1188,cs),
(519,1171,o),
(499,1156,o),
(474,1143,cs),
(438,1126,o),
(348,1086,o),
(312,1086,cs)
);
},
{
closed = 1;
nodes = (
(114,684,o),
(132,666,o),
(154,651,cs),
(176,636,o),
(191,622,o),
(200,610,c),
(188,586,o),
(141,552,o),
(120,537,cs),
(75,503,ls),
(68,498,o),
(60,492,o),
(51,486,cs),
(41,480,o),
(34,474,o),
(30,469,c),
(50,469,o),
(69,468,o),
(87,466,cs),
(104,464,o),
(124,464,o),
(146,465,cs),
(266,469,ls),
(313,469,o),
(352,469,o),
(385,470,cs),
(418,470,o),
(445,457,o),
(468,431,cs),
(490,404,o),
(500,382,o),
(498,363,cs),
(495,344,o),
(494,327,o),
(494,312,c),
(518,329,o),
(524,360,o),
(513,404,cs),
(502,447,o),
(506,479,o),
(526,499,c),
(587,549,ls),
(596,556,o),
(602,562,o),
(606,568,c),
(304,568,ls),
(284,569,o),
(266,576,o),
(250,589,cs),
(249,590,o),
(243,594,o),
(233,601,c),
(240,611,o),
(254,627,o),
(275,650,c),
(324,692,l),
(317,702,o),
(309,711,o),
(300,718,cs),
(290,725,o),
(281,734,o),
(272,743,c),
(265,748,o),
(256,756,o),
(244,765,cs),
(229,778,o),
(219,785,o),
(212,788,c),
(158,747,ls),
(151,742,o),
(141,735,o),
(127,726,cs),
(113,716,o),
(104,709,o),
(101,705,c)
);
}
);
width = 1083;
}
);
unicode = (69,101);
},
{
glyphname = F;
lastChange = "2023-03-17 09:50:21 +0000";
layers = (
{
layerId = m01;
shapes = (
{
closed = 1;
nodes = (
(660,1072,o),
(675,1076,o),
(686,1083,cs),
(697,1090,o),
(710,1093,o),
(727,1093,cs),
(783,1093,o),
(810,1070,o),
(808,1024,cs),
(805,977,o),
(806,944,o),
(810,924,cs),
(813,904,o),
(816,897,o),
(817,902,cs),
(818,907,o),
(818,887,o),
(818,844,cs),
(818,823,o),
(819,803,o),
(820,786,cs),
(821,769,o),
(822,751,o),
(822,733,c),
(734,733,o),
(664,751,o),
(612,788,cs),
(560,824,o),
(520,846,o),
(491,853,c),
(485,848,o),
(480,844,o),
(477,840,cs),
(473,836,o),
(468,832,o),
(463,827,cs),
(457,821,o),
(446,813,o),
(429,803,cs),
(413,792,o),
(370,765,o),
(354,762,c),
(354,745,l),
(383,738,o),
(419,720,o),
(464,689,cs),
(508,658,o),
(548,638,o),
(583,630,cs),
(638,617,o),
(668,645,o),
(704,669,cs),
(731,686,o),
(785,720,o),
(822,724,c),
(842,451,ls),
(843,442,o),
(842,431,o),
(841,417,cs),
(840,403,o),
(839,391,o),
(839,381,c),
(834,328,o),
(821,238,o),
(801,195,c),
(774,195,o),
(515,236,o),
(500,241,cs),
(460,253,o),
(453,262,o),
(425,282,c),
(411,275,o),
(397,268,o),
(384,263,cs),
(370,257,o),
(356,251,o),
(343,244,c),
(160,120,ls),
(143,109,o),
(134,98,o),
(131,87,c),
(148,83,o),
(164,92,o),
(177,113,cs),
(190,134,o),
(233,145,o),
(305,145,cs),
(313,145,o),
(319,145,o),
(324,144,cs),
(328,143,o),
(333,142,o),
(338,142,cs),
(344,141,o),
(349,142,o),
(354,143,cs),
(358,144,o),
(365,145,o),
(375,145,cs),
(402,145,o),
(434,141,o),
(469,132,cs),
(504,123,o),
(536,116,o),
(563,110,cs),
(571,108,o),
(579,106,o),
(587,105,cs),
(594,104,o),
(601,102,o),
(608,100,cs),
(617,98,o),
(624,96,o),
(631,95,cs),
(637,93,o),
(645,91,o),
(655,90,c),
(671,86,o),
(686,83,o),
(699,80,cs),
(737,72,o),
(756,70,o),
(756,74,c),
(755,77,o),
(773,103,o),
(809,150,cs),
(825,172,o),
(840,189,o),
(855,201,cs),
(869,213,o),
(888,234,o),
(911,263,cs),
(999,375,o),
(980,425,o),
(980,584,cs),
(980,618,o),
(977,662,o),
(971,715,cs),
(959,815,o),
(947,939,o),
(979,1035,cs),
(984,1050,o),
(989,1060,o),
(996,1064,cs),
(1003,1067,o),
(1014,1074,o),
(1031,1083,cs),
(1046,1091,o),
(1083,1110,o),
(1091,1122,c),
(1056,1123,o),
(934,1155,o),
(901,1168,cs),
(851,1186,o),
(826,1191,o),
(825,1184,cs),
(824,1177,o),
(786,1156,o),
(709,1123,cs),
(702,1120,o),
(698,1117,o),
(695,1115,cs),
(692,1113,o),
(688,1111,o),
(682,1109,cs),
(672,1105,o),
(663,1101,o),
(654,1098,cs),
(645,1095,o),
(641,1086,o),
(640,1072,c)
);
},
{
closed = 1;
nodes = (
(56,936,o),
(96,901,o),
(109,889,cs),
(120,877,o),
(131,867,o),
(140,858,cs),
(149,849,o),
(159,837,o),
(168,824,c),
(160,822,o),
(154,818,o),
(150,813,cs),
(145,808,o),
(140,803,o),
(135,799,cs),
(124,790,o),
(107,777,o),
(83,758,cs),
(58,739,o),
(44,727,o),
(40,720,c),
(57,708,o),
(80,693,o),
(109,674,cs),
(137,655,o),
(157,637,o),
(168,621,c),
(163,613,o),
(153,604,o),
(138,595,cs),
(123,586,o),
(113,578,o),
(106,571,cs),
(101,566,o),
(99,558,o),
(102,547,c),
(113,547,o),
(123,552,o),
(132,562,c),
(256,669,l),
(257,669,o),
(266,675,o),
(283,688,c),
(289,691,o),
(294,695,o),
(297,699,cs),
(300,703,o),
(306,706,o),
(313,708,c),
(307,715,o),
(302,720,o),
(297,721,cs),
(292,722,o),
(286,726,o),
(279,732,cs),
(263,744,o),
(246,758,o),
(228,775,cs),
(209,791,o),
(192,804,o),
(176,815,c),
(184,827,o),
(247,876,o),
(266,891,cs),
(280,900,o),
(290,910,o),
(296,919,c),
(293,932,o),
(290,938,o),
(286,937,cs),
(281,936,o),
(269,946,o),
(248,969,cs),
(237,980,o),
(205,1016,o),
(201,1031,c),
(210,1037,o),
(220,1043,o),
(230,1049,cs),
(239,1055,o),
(249,1061,o),
(259,1068,c),
(258,1069,o),
(256,1076,o),
(251,1089,c),
(241,1086,o),
(233,1080,o),
(226,1072,cs),
(219,1064,o),
(212,1057,o),
(205,1051,c),
(107,984,ls),
(99,979,o),
(90,973,o),
(80,966,cs),
(69,959,o),
(60,954,o),
(52,952,c)
);
},
{
closed = 1;
nodes = (
(272,1159,o),
(273,1159,o),
(274,1159,c),
(274,1159,o),
(274,1161,o),
(273,1164,cs),
(272,1167,o),
(272,1165,o),
(272,1159,c)
);
}
);
width = 1121;
}
);
unicode = (70,102);
},
{
glyphname = G;
lastChange = "2023-04-07 07:57:00 +0000";
layers = (
{
layerId = m01;
shapes = (
{
closed = 1;
nodes = (
(798,776,l),
(803,775,o),
(816,767,o),
(837,752,c),
(841,748,o),
(847,743,o),
(856,737,cs),
(865,730,o),
(869,724,o),
(869,718,cs),
(869,147,l),
(837,147,o),
(822,152,o),
(798,159,c)
);
},
{
closed = 1;
nodes = (
(438,1033,o),
(472,998,o),
(540,953,cs),
(608,907,o),
(653,876,o),
(676,860,cs),
(683,855,o),
(697,845,o),
(720,830,cs),
(725,827,o),
(734,822,o),
(745,815,cs),
(756,808,o),
(761,802,o),
(761,796,cs),
(761,172,l),
(754,172,o),
(741,175,o),
(720,181,cs),
(707,184,o),
(692,187,o),
(676,191,cs),
(656,195,o),
(643,200,o),
(638,207,cs),
(633,214,o),
(624,221,o),
(612,230,c),
(605,228,o),
(595,223,o),
(581,215,cs),
(552,197,o),
(523,182,o),
(496,171,cs),
(468,160,o),
(442,147,o),
(419,133,cs),
(417,132,o),
(407,125,o),
(390,113,cs),
(373,101,o),
(365,93,o),
(364,89,c),
(389,101,o),
(443,101,o),
(475,101,cs),
(519,101,o),
(567,92,o),
(618,74,cs),
(669,56,o),
(699,48,o),
(709,50,cs),
(719,51,o),
(735,58,o),
(756,71,cs),
(777,84,o),
(794,93,o),
(805,99,cs),
(858,127,o),
(913,156,o),
(973,176,cs),
(1047,201,l),
(1047,225,o),
(1047,250,o),
(1047,275,cs),
(1047,300,o),
(1047,325,o),
(1047,350,cs),
(1047,376,o),
(1048,400,o),
(1049,423,cs),
(1050,446,o),
(1051,471,o),
(1051,499,cs),
(1051,550,o),
(1052,600,o),
(1053,649,cs),
(1054,697,o),
(1055,746,o),
(1055,796,c),
(1026,815,o),
(1000,829,o),
(979,836,cs),
(958,843,o),
(934,854,o),
(909,870,cs),
(812,934,ls),
(772,963,o),
(692,1028,o),
(661,1065,c),
(661,1066,o),
(660,1067,o),
(659,1067,c),
(652,1076,ls),
(641,1088,o),
(637,1093,o),
(638,1092,cs),
(535,1212,o),
(579,1234,o),
(666,1397,c),
(638,1389,o),
(615,1342,o),
(604,1318,cs),
(565,1239,o),
(520,1167,o),
(468,1102,cs),
(460,1093,o),
(438,1069,o),
(438,1057,cs)
);
},
{
closed = 1;
nodes = (
(42,1108,o),
(69,1102,o),
(101,1100,cs),
(132,1098,o),
(148,1073,o),
(148,1024,cs),
(155,804,l),
(159,767,o),
(165,546,o),
(120,506,c),
(120,506,o),
(109,498,o),
(87,482,cs),
(69,468,o),
(59,458,o),
(57,453,c),
(66,451,o),
(76,449,o),
(86,447,cs),
(96,445,o),
(106,443,o),
(115,441,cs),
(124,438,o),
(133,436,o),
(143,434,cs),
(153,432,o),
(163,430,o),
(172,428,c),
(180,424,o),
(185,422,o),
(196,418,cs),
(279,389,ls),
(287,386,o),
(292,384,o),
(294,385,c),
(295,385,o),
(306,390,o),
(326,399,cs),
(338,404,o),
(365,417,o),
(406,436,cs),
(447,455,o),
(471,465,o),
(480,466,c),
(480,474,l),
(275,474,o),
(297,556,o),
(297,796,cs),
(297,877,o),
(301,950,o),
(310,1015,cs),
(315,1050,o),
(330,1074,o),
(354,1087,cs),
(363,1092,o),
(376,1099,o),
(393,1110,cs),
(410,1120,o),
(422,1126,o),
(430,1128,c),
(430,1136,l),
(397,1139,o),
(275,1169,o),
(240,1182,cs),
(187,1201,o),
(163,1208,o),
(169,1202,cs),
(175,1196,o),
(132,1173,o),
(40,1132,cs),
(29,1127,o),
(22,1122,o),
(20,1119,c)
);
},
{
closed = 1;
nodes = (
(561,529,o),
(576,523,o),
(597,513,cs),
(617,501,o),
(630,492,o),
(637,487,cs),
(644,482,o),
(661,490,o),
(690,512,cs),
(696,516,o),
(703,522,o),
(712,530,cs),
(720,537,o),
(728,542,o),
(736,544,c),
(733,552,o),
(718,564,o),
(690,581,cs),
(641,610,o),
(647,625,o),
(590,574,cs),
(565,551,o),
(551,537,o),
(550,532,c)
);
},
{
closed = 1;
nodes = (
(572,381,o),
(575,381,o),
(578,384,cs),
(581,387,o),
(580,387,o),
(575,385,c),
(575,385,o),
(573,386,o),
(570,387,cs),
(566,388,o),
(566,386,o),
(570,383,cs)
);
}
);
width = 1195;
}
);
unicode = (71,103);
},
{
glyphname = H;
lastChange = "2023-05-15 16:58:07 +0000";
layers = (
{
layerId = m01;
shapes = (
{
closed = 1;
nodes = (
(636,-30,o),
(666,-8,o),
(678,4,cs),
(770,90,o),
(830,173,o),
(857,253,cs),
(884,333,o),
(922,374,o),
(973,376,c),
(961,392,o),
(953,403,o),
(949,410,cs),
(932,438,o),
(923,463,o),
(923,484,cs),
(923,505,o),
(923,534,o),
(923,570,cs),
(923,579,o),
(923,589,o),
(923,599,cs),
(923,608,o),
(923,618,o),
(923,628,cs),
(923,641,o),
(924,650,o),
(925,657,cs),
(926,663,o),
(927,673,o),
(927,686,cs),
(931,926,ls),
(931,936,o),
(931,946,o),
(931,957,cs),
(931,968,o),
(931,978,o),
(931,988,cs),
(931,1000,o),
(932,1009,o),
(934,1016,cs),
(935,1022,o),
(936,1032,o),
(936,1046,cs),
(935,1146,o),
(938,1135,o),
(1025,1168,cs),
(1029,1169,o),
(1033,1171,o),
(1037,1173,c),
(1037,1173,o),
(1041,1175,o),
(1042,1175,c),
(1042,1175,o),
(1042,1175,o),
(1043,1176,c),
(1044,1176,o),
(1044,1176,o),
(1045,1177,c),
(1045,1177,o),
(1045,1177,o),
(1046,1178,c),
(1046,1178,o),
(1046,1178,o),
(1047,1178,cs),
(944,1186,o),
(891,1189,o),
(803,1249,c),
(703,1171,ls),
(680,1154,o),
(668,1146,o),
(666,1145,c),
(677,1130,o),
(754,1108,o),
(778,1108,c),
(778,864,ls),
(778,848,o),
(779,834,o),
(780,823,cs),
(781,811,o),
(782,798,o),
(782,785,cs),
(782,758,o),
(782,731,o),
(782,704,cs),
(782,677,o),
(782,650,o),
(782,624,cs),
(782,560,o),
(783,470,o),
(785,353,cs),
(786,236,o),
(768,155,o),
(730,109,cs),
(715,92,o),
(625,-14,o),
(621,-30,c)
);
},
{
closed = 1;
nodes = (
(64,971,o),
(132,946,o),
(132,918,cs),
(132,392,ls),
(132,385,o),
(131,381,o),
(128,382,c),
(125,382,o),
(123,378,o),
(121,370,cs),
(120,367,o),
(120,357,o),
(120,338,c),
(126,339,o),
(133,342,o),
(140,347,cs),
(143,349,o),
(146,351,o),
(149,354,cs),
(152,357,o),
(155,359,o),
(158,362,cs),
(175,376,o),
(187,386,o),
(196,391,cs),
(205,396,o),
(217,404,o),
(234,415,cs),
(239,418,o),
(246,422,o),
(255,427,cs),
(264,432,o),
(271,436,o),
(277,438,c),
(265,489,o),
(259,542,o),
(260,597,cs),
(261,652,o),
(261,706,o),
(261,760,cs),
(265,876,ls),
(265,886,o),
(266,892,o),
(267,895,cs),
(268,898,o),
(268,904,o),
(269,913,cs),
(270,954,o),
(266,952,o),
(298,967,cs),
(306,971,o),
(316,975,o),
(327,979,cs),
(338,982,o),
(346,988,o),
(352,996,c),
(344,1001,o),
(331,1005,o),
(314,1010,cs),
(296,1014,o),
(277,1020,o),
(256,1029,cs),
(188,1056,o),
(155,1071,o),
(157,1074,cs),
(159,1077,o),
(137,1062,o),
(90,1030,cs),
(74,1018,o),
(29,986,o),
(20,971,c)
);
},
{
closed = 1;
nodes = (
(283,809,o),
(297,794,o),
(320,773,cs),
(343,751,o),
(362,731,o),
(378,712,cs),
(386,702,o),
(391,696,o),
(393,694,c),
(295,619,ls),
(276,604,o),
(266,594,o),
(265,587,c),
(275,584,o),
(284,580,o),
(292,573,cs),
(300,566,o),
(308,560,o),
(316,555,cs),
(366,518,ls),
(377,509,o),
(386,498,o),
(393,487,c),
(331,441,l),
(325,435,o),
(324,427,o),
(327,417,c),
(338,417,o),
(347,420,o),
(352,426,cs),
(357,431,o),
(366,441,o),
(380,455,cs),
(394,469,o),
(424,493,o),
(469,528,cs),
(514,563,o),
(537,581,o),
(538,582,c),
(527,588,o),
(520,592,o),
(519,593,c),
(499,602,o),
(405,682,o),
(401,690,c),
(492,761,ls),
(507,772,o),
(517,782,o),
(522,789,c),
(519,798,o),
(516,803,o),
(514,806,c),
(511,808,o),
(508,809,o),
(505,810,c),
(502,810,o),
(492,820,o),
(473,840,cs),
(464,848,o),
(430,888,o),
(426,901,c),
(434,906,o),
(443,913,o),
(454,920,cs),
(464,927,o),
(474,931,o),
(484,934,c),
(482,944,o),
(479,952,o),
(476,959,c),
(473,957,o),
(461,947,o),
(439,928,cs),
(416,909,o),
(397,895,o),
(381,884,cs),
(364,873,o),
(346,862,o),
(329,851,cs),
(311,840,o),
(294,829,o),
(277,818,c)
);
},
{
closed = 1;
nodes = (
(352,983,o),
(354,983,o),
(357,983,cs),
(358,983,o),
(358,983,o),
(358,984,c),
(358,984,o),
(358,984,o),
(358,985,c),
(358,985,o),
(358,985,o),
(358,985,c),
(353,986,o),
(351,985,o),
(352,984,c)
);
},
{
closed = 1;
nodes = (
(617,-30,l),
(620,-35,l),
(621,-30,l)
);
}
);
width = 1077;
}
);
unicode = (72,104);
},
{
glyphname = I;
kernRight = I;
lastChange = "2023-05-15 17:00:37 +0000";
layers = (
{
layerId = m01;
shapes = (
{
closed = 1;
nodes = (
(269,312,ls),
(269,269,o),
(253,207,o),
(241,174,cs),
(234,157,o),
(226,138,o),
(215,118,cs),
(210,109,o),
(204,100,o),
(198,93,cs),
(191,85,o),
(186,77,o),
(182,68,c),
(194,69,o),
(201,70,o),
(202,71,cs),
(203,72,o),
(215,72,o),
(236,72,cs),
(266,72,o),
(293,60,o),
(318,37,cs),
(343,14,o),
(365,2,o),
(385,2,cs),
(392,2,o),
(520,80,o),
(525,101,c),
(513,104,o),
(449,133,o),
(441,141,cs),
(417,163,o),
(405,192,o),
(405,229,cs),
(405,272,o),
(404,313,o),
(403,353,cs),
(402,392,o),
(401,434,o),
(401,478,cs),
(401,916,ls),
(401,933,o),
(405,948,o),
(413,962,c),
(402,967,o),
(384,981,o),
(358,1004,cs),
(332,1026,o),
(313,1042,o),
(301,1052,cs),
(273,1075,o),
(224,1127,o),
(201,1158,cs),
(182,1181,o),
(170,1203,o),
(164,1225,cs),
(157,1244,o),
(161,1270,o),
(174,1305,cs),
(182,1325,o),
(196,1351,o),
(208,1374,cs),
(212,1383,o),
(219,1395,o),
(228,1409,cs),
(237,1423,o),
(242,1434,o),
(244,1442,c),
(220,1434,o),
(198,1391,o),
(187,1370,cs),
(180,1357,o),
(173,1343,o),
(164,1327,cs),
(159,1319,o),
(155,1312,o),
(152,1305,cs),
(149,1298,o),
(145,1291,o),
(141,1284,cs),
(96,1208,o),
(93,1204,o),
(32,1128,cs),
(19,1112,o),
(17,1098,o),
(25,1086,cs),
(37,1068,o),
(47,1056,o),
(55,1050,cs),
(129,991,l),
(151,976,o),
(170,961,o),
(187,948,cs),
(204,935,o),
(222,920,o),
(242,905,cs),
(260,891,o),
(269,878,o),
(269,866,cs)
);
},
{
closed = 1;
nodes = (
(431,843,o),
(440,832,o),
(456,818,cs),
(469,805,o),
(485,788,o),
(506,769,cs),
(526,750,o),
(538,734,o),
(542,722,c),
(418,622,l),
(421,617,o),
(432,608,o),
(451,597,cs),
(471,584,o),
(539,536,o),
(546,515,c),
(483,470,l),
(478,465,o),
(477,456,o),
(480,444,c),
(492,444,o),
(500,447,o),
(504,453,cs),
(507,458,o),
(516,469,o),
(531,484,cs),
(550,503,o),
(581,528,o),
(622,559,cs),
(663,590,o),
(685,607,o),
(687,610,c),
(682,616,o),
(677,620,o),
(672,622,c),
(666,623,o),
(660,627,o),
(653,633,cs),
(569,703,l),
(561,708,o),
(556,715,o),
(554,722,c),
(566,725,o),
(666,808,o),
(674,821,c),
(669,831,o),
(663,837,o),
(656,840,cs),
(649,842,o),
(634,857,o),
(613,884,c),
(601,896,o),
(590,905,o),
(575,928,c),
(586,937,o),
(598,944,o),
(611,951,cs),
(629,962,o),
(635,973,o),
(629,986,c),
(534,915,ls),
(528,911,o),
(511,900,o),
(483,881,cs),
(454,862,o),
(437,851,o),
(430,850,c)
);
}
);
width = 707;
}
);
unicode = (73,105);
},
{
glyphname = J;
lastChange = "2023-05-15 16:53:31 +0000";
layers = (
{
layerId = m01;
shapes = (
{
closed = 1;
nodes = (
(306,916,l),
(322,904,o),
(351,887,o),
(351,863,cs),
(351,441,l),
(342,441,o),
(335,442,o),
(330,443,cs),
(325,444,o),
(317,445,o),
(306,445,c)
);
},
{
closed = 1;
nodes = (
(269,449,l),
(208,449,o),
(164,455,o),
(158,449,cs),
(129,423,o),
(144,422,o),
(69,371,cs),
(62,366,o),
(53,361,o),
(42,355,cs),
(31,348,o),
(24,342,o),
(20,337,c),
(351,337,l),
(351,302,o),
(350,284,o),
(349,284,c),
(348,283,o),
(344,267,o),
(339,234,cs),
(331,188,o),
(320,154,o),
(305,133,cs),
(290,112,o),
(276,90,o),
(264,68,c),
(274,68,o),
(280,69,o),
(282,70,cs),
(284,71,o),
(292,72,o),
(306,72,cs),
(344,72,o),
(374,60,o),
(397,37,cs),
(419,14,o),
(442,2,o),
(467,2,cs),
(487,2,o),
(600,86,o),
(608,97,c),
(480,164,o),
(484,130,o),
(484,329,c),
(619,327,l),
(625,329,o),
(631,333,o),
(638,340,cs),
(708,407,ls),
(715,414,o),
(722,419,o),
(728,422,cs),
(733,425,o),
(739,432,o),
(745,441,c),
(730,441,o),
(719,440,o),
(712,438,cs),
(705,435,o),
(697,434,o),
(690,434,cs),
(554,437,ls),
(539,437,o),
(526,436,o),
(517,433,cs),
(507,430,o),
(496,428,o),
(484,428,c),
(484,929,ls),
(484,936,o),
(485,941,o),
(487,943,c),
(488,945,o),
(490,950,o),
(492,958,c),
(491,958,o),
(482,965,o),
(465,980,cs),
(330,1102,l),
(327,1104,o),
(320,1113,o),
(307,1129,cs),
(219,1226,o),
(224,1266,o),
(308,1406,cs),
(319,1427,o),
(325,1439,o),
(326,1442,c),
(286,1414,o),
(258,1352,o),
(237,1308,cs),
(213,1259,o),
(184,1214,o),
(150,1172,cs),
(117,1132,o),
(100,1108,o),
(100,1099,cs),
(100,1090,o),
(114,1072,o),
(143,1044,cs),
(160,1026,o),
(179,1010,o),
(200,997,cs),
(221,983,o),
(239,970,o),
(256,958,cs),
(265,950,o),
(269,944,o),
(269,941,cs)
);
}
);
width = 765;
}
);
unicode = (74,106);
},
{
glyphname = K;
lastChange = "2023-03-18 12:51:46 +0000";
layers = (
{
layerId = m01;
shapes = (
{
closed = 1;
nodes = (
(365,1075,o),
(307,1125,o),
(307,1125,c),
(292,1125,o),
(264,1114,o),
(225,1091,cs),
(185,1068,o),
(153,1051,o),
(130,1041,cs),
(118,1035,o),
(107,1030,o),
(98,1027,cs),
(89,1024,o),
(82,1015,o),
(79,1001,c),
(90,1002,o),
(102,1005,o),
(115,1012,cs),
(128,1019,o),
(136,1022,o),
(141,1022,c),
(202,987,ls),
(213,981,o),
(219,972,o),
(221,960,cs),
(229,893,o),
(232,759,o),
(187,703,c),
(167,686,ls),
(164,684,o),
(161,681,o),
(158,678,c),
(228,678,o),
(276,673,o),
(303,662,cs),
(329,651,o),
(362,644,o),
(402,641,c),
(398,585,o),
(318,507,o),
(275,470,cs),
(269,465,o),
(264,462,o),
(261,460,cs),
(258,457,o),
(253,453,o),
(248,448,cs),
(165,377,ls),
(160,372,o),
(155,368,o),
(152,365,cs),
(148,362,o),
(143,359,o),
(138,354,cs),
(111,330,o),
(80,302,o),
(45,271,cs),
(10,240,o),
(12,185,o),
(53,106,cs),
(87,39,o),
(113,19,o),
(132,48,cs),
(151,77,o),
(188,98,o),
(245,111,c),
(245,119,l),
(215,126,o),
(195,131,o),
(186,134,cs),
(176,136,o),
(164,149,o),
(150,173,cs),
(123,216,o),
(140,287,o),
(165,327,cs),
(168,332,o),
(172,338,o),
(177,344,c),
(462,602,ls),
(476,615,o),
(488,625,o),
(497,633,cs),
(506,641,o),
(517,653,o),
(531,669,cs),
(588,732,l),
(550,735,o),
(513,743,o),
(478,757,cs),
(443,770,o),
(409,777,o),
(377,777,c),
(377,1022,ls),
(377,1036,o),
(386,1046,o),
(403,1053,cs),
(420,1060,o),
(441,1068,o),
(466,1078,cs),
(481,1083,o),
(565,1108,o),
(580,1108,cs),
(586,1108,o),
(597,1106,o),
(612,1101,cs),
(627,1096,o),
(639,1092,o),
(649,1090,cs),
(663,1086,o),
(670,1083,o),
(671,1080,c),
(671,1077,o),
(671,1058,o),
(671,1022,cs),
(671,992,o),
(671,962,o),
(671,933,cs),
(671,903,o),
(671,873,o),
(671,844,cs),
(675,579,ls),
(675,561,o),
(676,546,o),
(678,535,cs),
(679,524,o),
(680,509,o),
(680,492,cs),
(679,392,o),
(678,162,o),
(630,98,cs),
(617,80,o),
(595,54,o),
(566,19,cs),
(536,-16,o),
(517,-40,o),
(510,-54,c),
(542,-46,o),
(583,-7,o),
(607,18,cs),
(611,23,ls),
(615,27,o),
(617,29,o),
(617,29,c),
(638,52,o),
(651,68,o),
(657,79,cs),
(663,90,o),
(673,105,o),
(687,124,cs),
(692,131,o),
(695,136,o),
(697,139,cs),
(721,179,o),
(744,218,o),
(765,262,cs),
(791,315,o),
(823,346,o),
(862,355,c),
(859,359,o),
(850,369,o),
(833,385,cs),
(816,401,o),
(808,423,o),
(808,451,cs),
(808,1034,ls),
(808,1071,o),
(822,1099,o),
(851,1119,c),
(918,1147,l),
(930,1150,o),
(937,1154,o),
(940,1158,c),
(889,1158,o),
(842,1164,o),
(800,1176,cs),
(771,1183,o),
(751,1191,o),
(740,1199,cs),
(729,1206,o),
(714,1216,o),
(696,1228,c),
(645,1183,o),
(589,1147,o),
(528,1119,cs),
(504,1107,o),
(415,1075,o),
(398,1075,cs)
);
}
);
width = 960;
}
);
unicode = (75,107);
},
{
glyphname = L;
lastChange = "2023-05-15 16:59:47 +0000";
layers = (
{
layerId = m01;
shapes = (
{
closed = 1;
nodes = (
(315,1105,o),
(288,1115,o),
(258,1136,cs),
(227,1156,o),
(206,1169,o),
(194,1176,c),
(191,1173,o),
(184,1167,o),
(175,1158,cs),
(148,1134,o),
(125,1118,o),
(106,1109,cs),
(86,1100,o),
(63,1088,o),
(37,1072,c),
(28,1065,o),
(22,1059,o),
(20,1052,c),
(57,1052,o),
(102,1037,o),
(135,1026,cs),
(174,1014,l),
(167,1004,o),
(150,990,o),
(124,971,cs),
(98,952,o),
(83,932,o),
(78,911,c),
(87,912,o),
(99,916,o),
(116,923,cs),
(123,926,o),
(132,934,o),
(143,945,cs),
(152,954,o),
(160,962,o),
(168,971,cs),
(176,980,o),
(185,988,o),
(196,996,cs),
(219,1012,o),
(299,1068,o),
(331,1068,cs),
(339,1068,o),
(353,1064,o),
(373,1056,c),
(591,1002,ls),
(604,999,o),
(612,998,o),
(617,999,cs),
(621,1000,o),
(631,997,o),
(647,992,cs),
(656,988,o),
(662,986,o),
(663,986,cs),
(664,986,o),
(669,983,o),
(679,977,c),
(678,968,o),
(675,958,o),
(670,945,cs),
(648,883,ls),
(622,809,o),
(613,714,o),
(621,599,cs),
(629,484,o),
(633,382,o),
(633,294,cs),
(633,231,o),
(612,189,o),
(570,167,cs),
(527,144,o),
(499,122,o),
(484,100,c),
(526,103,o),
(560,109,o),
(585,116,cs),
(610,123,o),
(647,120,o),
(698,107,cs),
(714,103,o),
(731,100,o),
(749,97,cs),
(767,94,o),
(784,90,o),
(800,85,cs),
(821,77,o),
(885,67,o),
(910,67,cs),
(915,67,o),
(934,79,o),
(966,104,cs),
(997,129,o),
(1025,148,o),
(1048,161,cs),
(1057,166,o),
(1062,172,o),
(1064,179,c),
(1018,179,o),
(987,181,o),
(972,184,cs),
(956,187,o),
(928,191,o),
(888,198,cs),
(859,203,o),
(827,210,o),
(794,221,cs),
(760,231,o),
(738,236,o),
(728,237,c),
(737,253,o),
(746,268,o),
(756,281,cs),
(765,294,o),
(774,312,o),
(781,333,cs),
(793,370,o),
(799,415,o),
(799,468,cs),
(799,495,o),
(798,520,o),
(797,543,cs),
(795,566,o),
(794,590,o),
(794,617,cs),
(794,689,o),
(794,756,o),
(793,818,cs),
(792,880,o),
(813,942,o),
(854,1005,cs),
(872,1032,o),
(904,1058,o),
(949,1082,cs),
(994,1106,o),
(1018,1120,o),
(1021,1124,cs),
(1025,1131,o),
(1026,1134,o),
(1024,1135,c),
(1013,1135,ls),
(1002,1134,o),
(990,1130,o),
(975,1123,cs),
(960,1116,o),
(933,1113,o),
(894,1114,cs),
(758,1114,o),
(763,1103,o),
(616,1150,cs),
(614,1151,o),
(604,1154,o),
(587,1159,cs),
(580,1162,o),
(570,1165,o),
(556,1169,cs),
(514,1179,o),
(488,1184,o),
(478,1184,cs),
(468,1184,o),
(444,1171,o),
(406,1146,cs),
(397,1139,o),
(346,1105,o),
(339,1105,cs)
);
}
);
width = 1084;
}
);
unicode = (76,108);
},
{
glyphname = M;
lastChange = "2023-03-18 12:45:25 +0000";
layers = (
{
layerId = m01;
shapes = (
{
closed = 1;
nodes = (
(310,1046,l),
(310,219,l),
(251,248,o),
(264,312,o),
(264,397,cs),
(264,434,o),
(264,471,o),
(264,508,cs),
(264,545,o),
(264,583,o),
(264,620,cs),
(264,683,o),
(263,738,o),
(261,783,cs),
(259,828,o),
(260,882,o),
(264,947,cs),
(265,964,o),
(266,982,o),
(269,999,cs),
(271,1016,o),
(272,1033,o),
(272,1051,c)
);
},
{
closed = 1;
nodes = (
(129,949,o),
(136,894,o),
(136,815,cs),
(136,579,ls),
(136,567,o),
(135,556,o),
(133,546,cs),
(131,535,o),
(131,526,o),
(132,517,cs),
(137,454,o),
(124,346,o),
(108,283,cs),
(105,271,o),
(102,262,o),
(100,257,cs),
(97,251,o),
(94,244,o),
(91,235,cs),
(82,213,o),
(74,198,o),
(67,189,cs),
(60,180,o),
(51,168,o),
(40,152,c),
(81,152,o),
(105,152,o),
(113,153,cs),
(121,153,o),
(147,138,o),
(192,109,cs),
(228,85,o),
(249,78,o),
(256,87,cs),
(262,96,o),
(284,109,o),
(322,128,cs),
(333,133,o),
(343,140,o),
(352,147,c),
(538,267,ls),
(550,274,o),
(556,276,o),
(555,275,cs),
(554,274,o),
(562,273,o),
(578,273,cs),
(611,271,o),
(640,267,o),
(666,260,cs),
(673,258,o),
(679,256,o),
(684,254,cs),
(689,251,o),
(695,249,o),
(702,247,cs),
(849,191,ls),
(863,186,o),
(874,187,o),
(882,195,cs),
(889,202,o),
(899,211,o),
(911,222,cs),
(950,258,o),
(1076,361,o),
(1121,372,c),
(1121,381,o),
(1118,399,o),
(1113,428,cs),
(1107,456,o),
(1104,491,o),
(1104,533,cs),
(1104,583,o),
(1104,635,o),
(1104,688,cs),
(1104,741,o),
(1107,792,o),
(1112,840,cs),
(1116,881,o),
(1121,900,o),
(1128,898,cs),
(1134,895,o),
(1152,903,o),
(1183,922,cs),
(1189,926,o),
(1193,930,o),
(1195,935,c),
(1187,938,o),
(1179,941,o),
(1171,942,cs),
(1162,943,o),
(1153,946,o),
(1144,950,cs),
(1125,956,o),
(1108,962,o),
(1093,969,cs),
(1049,988,o),
(1017,1002,o),
(997,1013,c),
(879,923,l),
(868,912,o),
(871,907,o),
(888,906,cs),
(928,902,o),
(980,882,o),
(980,835,cs),
(980,515,o),
(980,347,o),
(978,333,cs),
(975,319,o),
(972,314,o),
(971,317,cs),
(970,320,o),
(968,319,o),
(966,313,c),
(965,313,o),
(965,313,o),
(964,313,cs),
(963,313,o),
(963,313,o),
(963,313,c),
(728,377,ls),
(714,380,o),
(707,388,o),
(707,401,cs),
(707,439,o),
(714,460,o),
(727,464,cs),
(740,468,o),
(753,475,o),
(767,486,cs),
(772,489,o),
(776,494,o),
(777,500,c),
(734,500,o),
(695,511,o),
(662,533,cs),
(628,554,o),
(604,567,o),
(591,570,c),
(485,490,ls),
(467,478,o),
(457,468,o),
(455,459,c),
(506,459,o),
(570,444,o),
(570,384,cs),
(570,350,o),
(569,329,o),
(567,320,cs),
(565,311,o),
(556,303,o),
(540,295,cs),
(425,228,ls),
(419,224,o),
(414,221,o),
(410,219,cs),
(405,217,o),
(401,214,o),
(396,211,cs),
(377,199,o),
(367,193,o),
(366,193,cs),
(365,193,o),
(359,195,o),
(347,198,c),
(347,1034,l),
(376,1033,o),
(439,1000,o),
(455,976,c),
(466,952,o),
(473,940,o),
(475,939,c),
(475,957,o),
(477,977,o),
(482,998,cs),
(490,1033,o),
(503,1060,o),
(521,1079,cs),
(539,1098,o),
(550,1114,o),
(554,1129,c),
(527,1131,o),
(492,1141,o),
(448,1158,cs),
(404,1175,o),
(380,1183,o),
(376,1183,cs),
(372,1183,o),
(349,1167,o),
(307,1134,cs),
(265,1101,o),
(232,1078,o),
(208,1065,cs),
(130,1027,ls),
(109,1018,o),
(95,1012,o),
(90,1009,c)
);
},
{
closed = 1;
nodes = (
(525,672,o),
(544,665,o),
(566,652,cs),
(588,639,o),
(602,633,o),
(608,633,cs),
(617,633,o),
(627,636,o),
(637,642,cs),
(647,648,o),
(655,653,o),
(662,657,cs),
(689,674,o),
(704,686,o),
(707,695,c),
(608,748,l),
(593,741,o),
(575,730,o),
(554,715,cs),
(547,711,o),
(539,705,o),
(530,698,cs),
(517,687,o),
(509,679,o),
(508,674,c)
);
}
);
width = 1245;
}
);
unicode = (77,109);
},
{
glyphname = N;
kernRight = N;
lastChange = "2023-03-18 12:49:47 +0000";
layers = (
{
layerId = m01;
shapes = (
{
closed = 1;
nodes = (
(163,1007,l),
(182,1002,o),
(192,989,o),
(192,970,cs),
(192,473,ls),
(192,464,o),
(168,432,o),
(163,428,c)
);
},
{
closed = 1;
nodes = (
(813,973,o),
(778,948,o),
(765,939,cs),
(651,851,ls),
(641,843,o),
(631,835,o),
(622,828,cs),
(613,820,o),
(603,812,o),
(593,804,cs),
(370,623,l),
(370,1036,l),
(390,1041,o),
(404,1048,o),
(411,1057,c),
(405,1061,o),
(387,1067,o),
(357,1075,cs),
(326,1083,o),
(294,1096,o),
(261,1113,cs),
(227,1129,ls),
(219,1132,o),
(217,1134,o),
(220,1133,cs),
(223,1132,o),
(220,1133,o),
(212,1136,c),
(187,1121,o),
(92,1052,o),
(80,1032,c),
(91,1032,o),
(98,1031,o),
(102,1030,cs),
(105,1029,o),
(112,1028,o),
(121,1028,c),
(121,316,ls),
(121,292,o),
(148,241,o),
(167,225,c),
(175,216,o),
(190,210,o),
(212,205,c),
(223,225,o),
(225,235,o),
(218,234,cs),
(211,233,o),
(202,238,o),
(193,247,cs),
(168,268,o),
(180,357,o),
(197,389,cs),
(199,392,o),
(202,396,o),
(205,403,cs),
(225,443,o),
(253,463,o),
(285,488,cs),
(320,519,ls),
(338,534,o),
(357,552,o),
(378,573,cs),
(399,593,o),
(419,611,o),
(440,627,cs),
(481,660,o),
(523,695,o),
(566,732,cs),
(609,769,o),
(651,803,o),
(694,836,cs),
(764,890,ls),
(772,896,o),
(788,909,o),
(813,929,cs),
(837,948,o),
(853,959,o),
(862,962,c),
(915,926,o),
(945,776,o),
(945,701,cs),
(945,561,o),
(921,431,o),
(866,346,cs),
(862,339,o),
(858,334,o),
(854,331,cs),
(849,327,o),
(845,322,o),
(841,317,cs),
(835,311,o),
(831,306,o),
(829,303,cs),
(826,299,o),
(822,294,o),
(816,288,cs),
(687,144,ls),
(674,129,o),
(666,118,o),
(664,109,c),
(717,136,o),
(899,97,o),
(954,85,cs),
(966,82,o),
(977,79,o),
(987,76,cs),
(997,73,o),
(1008,70,o),
(1020,68,c),
(1101,156,l),
(1116,168,o),
(1186,220,o),
(1206,225,c),
(1204,232,o),
(1200,240,o),
(1194,250,c),
(1166,231,o),
(1149,219,o),
(1142,213,cs),
(1135,206,o),
(1098,209,o),
(1033,222,cs),
(854,263,l),
(857,274,o),
(872,295,o),
(901,328,cs),
(929,360,o),
(948,383,o),
(959,397,cs),
(964,404,o),
(972,413,o),
(981,425,c),
(1036,486,o),
(1058,533,o),
(1090,610,cs),
(1121,685,o),
(1123,748,o),
(1123,829,cs),
(1123,900,o),
(1107,956,o),
(1076,996,cs),
(1044,1035,o),
(1025,1060,o),
(1020,1070,cs),
(1016,1077,o),
(1014,1080,o),
(1015,1081,c),
(1015,1082,o),
(1012,1086,o),
(1006,1093,cs),
(997,1103,o),
(983,1116,o),
(965,1131,cs),
(956,1137,o),
(950,1143,o),
(945,1149,cs),
(940,1154,o),
(933,1160,o),
(923,1167,cs),
(855,1207,o),
(856,1198,o),
(819,1146,cs),
(779,1089,o),
(723,1043,o),
(651,1007,cs),
(645,1004,o),
(637,1000,o),
(626,995,cs),
(615,990,o),
(609,984,o),
(608,976,cs),
(607,971,o),
(609,968,o),
(615,968,cs),
(628,968,o),
(677,991,o),
(690,998,cs),
(722,1012,o),
(741,1021,o),
(746,1024,cs),
(751,1027,o),
(766,1022,o),
(792,1008,cs),
(809,998,o),
(819,989,o),
(821,982,c)
);
},
{
closed = 1;
nodes = (
(563,498,o),
(590,484,o),
(591,469,cs),
(592,454,o),
(620,467,o),
(674,509,cs),
(686,517,o),
(694,522,o),
(697,523,c),
(694,532,o),
(689,539,o),
(681,543,cs),
(672,547,o),
(662,553,o),
(651,561,cs),
(604,590,o),
(608,604,o),
(551,553,cs),
(544,547,o),
(536,541,o),
(528,535,cs),
(518,526,o),
(512,518,o),
(511,511,c)
);
}
);
width = 1226;
}
);
unicode = (78,110);
},
{
glyphname = O;
kernRight = N;
lastChange = "2023-05-15 17:00:23 +0000";
layers = (
{
layerId = m01;
shapes = (
{
closed = 1;
nodes = (
(50,676,o),
(53,587,o),
(89,523,cs),
(116,476,o),
(149,435,o),
(189,400,cs),
(202,388,o),
(213,379,o),
(223,374,cs),
(233,369,o),
(244,362,o),
(256,354,cs),
(282,336,o),
(306,323,o),
(327,314,cs),
(367,296,o),
(389,287,o),
(394,287,cs),
(399,286,o),
(418,282,o),
(453,274,cs),
(486,265,o),
(503,261,o),
(503,260,cs),
(503,259,o),
(534,273,o),
(596,301,cs),
(605,305,o),
(622,312,o),
(645,322,cs),
(657,326,o),
(683,336,o),
(691,347,c),
(618,353,ls),
(545,363,o),
(509,409,o),
(509,492,cs),
(509,537,o),
(509,611,o),
(508,714,cs),
(507,817,o),
(514,886,o),
(530,921,cs),
(540,942,o),
(553,957,o),
(570,964,cs),
(604,980,o),
(627,986,o),
(640,983,cs),
(652,980,o),
(668,976,o),
(688,972,cs),
(756,956,o),
(805,853,o),
(824,789,cs),
(863,649,o),
(836,378,o),
(752,278,cs),
(594,100,ls),
(585,89,o),
(578,82,o),
(573,78,cs),
(568,74,o),
(565,67,o),
(563,57,c),
(616,82,o),
(794,46,o),
(850,34,cs),
(862,31,o),
(873,28,o),
(883,25,cs),
(893,21,o),
(904,18,o),
(915,16,c),
(922,21,o),
(931,29,o),
(941,41,cs),
(950,53,o),
(959,63,o),
(966,72,cs),
(973,79,o),
(976,82,o),
(976,82,c),
(1003,105,o),
(1074,165,o),
(1105,173,c),
(1102,184,o),
(1096,193,o),
(1089,198,c),
(1064,181,o),
(1049,168,o),
(1045,161,cs),
(1041,153,o),
(1002,156,o),
(929,170,cs),
(796,200,ls),
(774,206,o),
(760,209,o),
(753,210,c),
(754,217,o),
(760,226,o),
(770,239,cs),
(837,321,l),
(961,460,o),
(1023,577,o),
(1023,773,cs),
(1023,856,o),
(984,937,o),
(936,997,cs),
(881,1062,l),
(881,1063,o),
(880,1064,o),
(879,1064,c),
(856,1087,o),
(794,1141,o),
(766,1141,cs),
(751,1141,o),
(739,1133,o),
(728,1117,cs),
(713,1093,o),
(704,1079,o),
(702,1076,cs),
(693,1063,o),
(646,1013,o),
(637,1013,cs),
(578,1013,o),
(460,1049,o),
(416,1069,cs),
(398,1077,o),
(383,1077,o),
(370,1069,cs),
(338,1049,o),
(319,1038,o),
(312,1035,cs),
(305,1032,o),
(286,1023,o),
(256,1009,cs),
(245,1004,o),
(240,997,o),
(240,988,c),
(275,988,o),
(307,979,o),
(334,962,cs),
(353,948,o),
(362,916,o),
(361,866,cs),
(359,815,o),
(360,774,o),
(364,743,c),
(364,496,ls),
(364,485,o),
(352,487,o),
(329,502,cs),
(240,565,o),
(161,698,o),
(161,814,cs),
(161,885,o),
(156,914,o),
(184,982,cs),
(200,1022,o),
(316,1145,o),
(368,1145,cs),
(377,1145,o),
(394,1138,o),
(418,1123,cs),
(441,1108,o),
(461,1097,o),
(478,1089,cs),
(513,1072,o),
(516,1072,o),
(564,1119,cs),
(572,1127,o),
(581,1135,o),
(592,1142,cs),
(603,1149,o),
(611,1157,o),
(617,1166,c),
(568,1166,o),
(509,1205,o),
(470,1230,cs),
(450,1242,o),
(434,1241,o),
(423,1228,cs),
(412,1214,o),
(385,1193,o),
(344,1165,cs),
(272,1117,o),
(168,1026,o),
(125,962,cs),
(84,901,o),
(50,832,o),
(50,752,cs)
);
}
);
width = 1125;
}
);
unicode = (79,111);
},
{
glyphname = P;
kernRight = I;
lastChange = "2023-03-18 12:52:53 +0000";
layers = (
{
layerId = m01;
shapes = (
{
closed = 1;
nodes = (
(318,1050,ls),
(318,1059,o),
(323,1066,o),
(334,1069,cs),
(344,1072,o),
(353,1075,o),
(360,1078,cs),
(378,1084,o),
(404,1094,o),
(438,1108,cs),
(471,1122,o),
(500,1129,o),
(525,1129,cs),
(529,1129,o),
(539,1126,o),
(556,1119,cs),
(572,1112,o),
(589,1108,o),
(608,1108,c),
(608,971,ls),
(608,944,o),
(609,920,o),
(610,899,cs),
(611,877,o),
(612,853,o),
(612,826,c),
(547,793,l),
(535,785,o),
(527,780,o),
(518,772,cs),
(503,760,o),
(489,756,o),
(478,759,cs),
(466,762,o),
(442,769,o),
(405,781,cs),
(381,788,o),
(346,798,o),
(318,798,c)
);
},
{
closed = 1;
nodes = (
(317,1096,o),
(295,1104,o),
(277,1121,cs),
(259,1137,o),
(249,1145,o),
(248,1145,cs),
(241,1145,o),
(230,1142,o),
(216,1136,cs),
(201,1129,o),
(191,1125,o),
(184,1122,cs),
(173,1117,o),
(164,1112,o),
(156,1107,cs),
(148,1101,o),
(139,1095,o),
(129,1090,cs),
(96,1072,o),
(70,1060,o),
(51,1054,cs),
(32,1048,o),
(21,1037,o),
(20,1021,c),
(31,1022,o),
(43,1025,o),
(56,1032,cs),
(69,1039,o),
(77,1042,o),
(82,1042,cs),
(81,1042,o),
(91,1036,o),
(110,1024,cs),
(147,1001,o),
(165,971,o),
(165,934,cs),
(165,870,o),
(169,777,o),
(129,726,cs),
(124,720,o),
(118,715,o),
(113,711,cs),
(107,707,o),
(102,703,o),
(99,698,c),
(136,698,o),
(156,699,o),
(188,692,cs),
(231,683,o),
(252,679,o),
(252,680,c),
(251,681,o),
(266,671,o),
(296,651,cs),
(305,645,o),
(319,633,o),
(340,616,cs),
(361,598,o),
(374,588,o),
(380,587,c),
(486,700,l),
(526,736,o),
(564,771,o),
(612,798,c),
(612,755,o),
(613,714,o),
(614,675,cs),
(615,635,o),
(616,593,o),
(616,549,cs),
(616,526,o),
(617,506,o),
(618,489,cs),
(619,471,o),
(620,451,o),
(620,429,cs),
(620,345,o),
(614,172,o),
(562,108,cs),
(478,5,ls),
(461,-18,o),
(452,-31,o),
(451,-34,c),
(491,-26,o),
(550,40,o),
(578,75,cs),
(585,84,o),
(592,94,o),
(599,103,cs),
(612,121,o),
(625,140,o),
(637,160,cs),
(643,170,o),
(649,180,o),
(654,190,cs),
(659,199,o),
(665,210,o),
(672,221,cs),
(687,245,o),
(704,276,o),
(723,314,cs),
(742,352,o),
(769,373,o),
(803,376,c),
(798,382,o),
(792,387,o),
(785,390,cs),
(778,393,o),
(771,402,o),
(764,415,cs),
(757,427,o),
(745,463,o),
(745,479,cs),
(745,1021,ls),
(745,1070,o),
(757,1106,o),
(781,1130,cs),
(799,1148,o),
(819,1158,o),
(840,1161,cs),
(861,1163,o),
(874,1169,o),
(881,1178,c),
(809,1178,o),
(716,1190,o),
(660,1230,cs),
(654,1234,o),
(650,1237,o),
(648,1240,c),
(645,1242,o),
(642,1245,o),
(637,1249,c),
(625,1241,o),
(614,1233,o),
(605,1225,cs),
(595,1217,o),
(584,1209,o),
(573,1201,cs),
(541,1176,o),
(525,1164,o),
(524,1165,c),
(523,1165,o),
(505,1157,o),
(469,1140,cs),
(451,1131,o),
(437,1126,o),
(428,1123,cs),
(417,1119,o),
(343,1096,o),
(343,1096,c)
);
},
{
closed = 1;
nodes = (
(791,912,o),
(815,890,o),
(854,859,cs),
(893,828,o),
(918,806,o),
(927,793,c),
(917,778,o),
(892,759,o),
(853,734,cs),
(813,709,o),
(788,689,o),
(778,673,c),
(791,664,o),
(803,655,o),
(815,646,cs),
(827,637,o),
(839,628,o),
(852,620,cs),
(865,611,o),
(877,602,o),
(889,593,cs),
(901,583,o),
(914,574,o),
(927,566,c),
(916,550,o),
(901,537,o),
(884,526,cs),
(867,515,o),
(856,502,o),
(852,487,c),
(861,474,o),
(870,472,o),
(877,483,cs),
(884,493,o),
(896,507,o),
(914,525,cs),
(918,529,ls),
(922,533,o),
(926,537,o),
(933,544,cs),
(990,598,ls),
(1002,610,o),
(1014,620,o),
(1026,627,cs),
(1038,634,o),
(1046,640,o),
(1051,644,cs),
(1057,649,o),
(1063,663,o),
(1068,686,c),
(1056,703,o),
(1039,720,o),
(1016,737,c),
(952,777,l),
(955,789,o),
(986,818,o),
(998,830,cs),
(1011,842,ls),
(1017,848,o),
(1022,854,o),
(1025,859,cs),
(1028,864,o),
(1033,869,o),
(1040,875,cs),
(1048,882,o),
(1053,885,o),
(1056,884,cs),
(1059,883,o),
(1061,884,o),
(1063,885,cs),
(1066,887,o),
(1067,887,o),
(1068,885,c),
(1068,882,o),
(1068,886,o),
(1068,897,cs),
(1068,901,o),
(1060,912,o),
(1044,929,cs),
(1027,946,o),
(1017,957,o),
(1013,962,c),
(958,1016,o),
(940,1042,o),
(959,1040,cs),
(978,1038,o),
(990,1057,o),
(993,1096,c),
(973,1084,o),
(907,1029,o),
(887,1012,cs),
(882,1007,o),
(874,1000,o),
(861,991,cs),
(860,990,o),
(851,983,o),
(834,969,cs),
(828,964,o),
(819,956,o),
(806,947,cs),
(793,937,o),
(785,930,o),
(782,926,c)
);
}
);
width = 1088;
}
);
unicode = (80,112);
},
{
glyphname = Q;
lastChange = "2023-04-07 07:49:32 +0000";
layers = (
{
layerId = m01;
shapes = (
{
closed = 1;
nodes = (
(1041,147,o),
(1034,148,o),
(1031,151,c),
(1027,153,o),
(1020,155,o),
(1010,156,c),
(1010,768,l),
(1022,760,o),
(1072,725,o),
(1072,710,cs),
(1072,641,o),
(1073,559,o),
(1074,465,cs),
(1075,371,o),
(1073,292,o),
(1068,227,cs),
(1067,220,o),
(1066,205,o),
(1064,182,cs),
(1062,159,o),
(1058,147,o),
(1052,147,cs)
);
},
{
closed = 1;
nodes = (
(729,956,o),
(739,950,o),
(751,941,cs),
(762,932,o),
(772,924,o),
(780,918,cs),
(798,903,o),
(818,889,o),
(841,877,c),
(969,797,l),
(969,168,l),
(937,175,o),
(910,183,o),
(887,190,cs),
(734,244,l),
(718,251,o),
(706,256,o),
(699,257,cs),
(692,258,o),
(678,265,o),
(658,276,c),
(659,508,l),
(658,519,o),
(657,527,o),
(656,532,cs),
(655,537,o),
(654,544,o),
(654,553,cs),
(658,644,ls),
(658,707,o),
(657,752,o),
(656,781,cs),
(654,810,o),
(663,850,o),
(683,901,cs),
(690,917,o),
(695,927,o),
(698,931,cs),
(704,940,o),
(709,945,o),
(712,945,cs),
(715,945,o),
(718,949,o),
(720,958,c)
);
},
{
closed = 1;
nodes = (
(670,955,o),
(657,945,o),
(660,946,cs),
(663,947,o),
(647,939,o),
(612,923,cs),
(501,871,o),
(496,874,o),
(377,922,cs),
(360,929,o),
(342,937,o),
(325,948,cs),
(315,953,o),
(306,958,o),
(298,962,cs),
(290,965,o),
(282,970,o),
(273,975,c),
(271,973,o),
(267,969,o),
(260,964,cs),
(156,881,ls),
(138,866,o),
(119,851,o),
(98,836,cs),
(75,818,o),
(61,808,o),
(57,807,cs),
(52,805,o),
(50,795,o),
(50,776,c),
(73,781,o),
(94,790,o),
(113,803,cs),
(132,816,o),
(175,806,o),
(241,774,cs),
(348,719,o),
(327,720,o),
(454,820,cs),
(460,825,o),
(466,830,o),
(473,836,cs),
(480,842,o),
(486,847,o),
(493,851,c),
(506,826,o),
(512,796,o),
(511,763,cs),
(510,729,o),
(509,694,o),
(509,657,cs),
(509,644,o),
(508,631,o),
(506,619,cs),
(504,607,o),
(504,596,o),
(506,587,c),
(505,367,ls),
(505,341,o),
(505,315,o),
(506,290,cs),
(506,265,o),
(504,241,o),
(500,219,cs),
(496,200,o),
(486,184,o),
(471,173,cs),
(444,155,o),
(430,144,o),
(427,139,c),
(551,167,o),
(597,144,o),
(721,107,c),
(756,92,l),
(756,92,o),
(756,92,o),
(757,92,c),
(758,91,o),
(758,91,o),
(759,91,c),
(898,52,l),
(907,52,o),
(941,69,o),
(999,102,cs),
(1056,135,o),
(1105,158,o),
(1144,171,cs),
(1160,176,o),
(1176,181,o),
(1191,187,cs),
(1206,192,o),
(1222,197,o),
(1238,201,c),
(1238,228,o),
(1239,252,o),
(1240,274,cs),
(1241,296,o),
(1242,320,o),
(1242,346,cs),
(1246,801,l),
(1224,816,o),
(1200,828,o),
(1174,838,cs),
(1148,847,o),
(1123,859,o),
(1100,874,cs),
(1019,922,o),
(918,996,o),
(854,1067,cs),
(795,1130,o),
(768,1173,o),
(772,1195,cs),
(776,1216,o),
(778,1245,o),
(778,1281,c),
(769,1273,o),
(738,1216,o),
(730,1201,cs),
(715,1177,o),
(701,1157,o),
(688,1141,cs),
(674,1125,o),
(660,1107,o),
(646,1087,cs),
(627,1062,o),
(621,1052,o),
(661,1015,cs),
(662,1014,o),
(663,1013,o),
(663,1013,c),
(669,1006,o),
(675,1000,o),
(682,995,cs),
(688,990,o),
(694,983,o),
(700,975,c)
);
}
);
width = 1376;
}
);
unicode = (81,113);
},
{
glyphname = R;
lastChange = "2023-04-07 07:55:10 +0000";
layers = (
{
layerId = m01;
shapes = (
{
closed = 1;
nodes = (
(383,1109,o),
(284,1148,o),
(232,1161,cs),
(224,1163,o),
(211,1165,o),
(194,1168,cs),
(164,1173,o),
(151,1178,o),
(155,1182,cs),
(159,1185,o),
(137,1169,o),
(89,1133,cs),
(73,1120,o),
(36,1090,o),
(20,1086,c),
(20,1077,l),
(84,1076,o),
(286,1030,o),
(310,999,c),
(283,992,o),
(214,921,o),
(205,905,cs),
(196,890,o),
(196,884,o),
(204,887,cs),
(211,889,o),
(219,889,o),
(227,887,cs),
(235,884,o),
(249,877,o),
(268,864,cs),
(287,851,o),
(301,844,o),
(310,842,c),
(312,843,o),
(314,845,o),
(316,846,cs),
(317,847,o),
(319,848,o),
(322,850,c),
(328,856,o),
(332,861,o),
(335,865,cs),
(338,869,o),
(346,876,o),
(360,887,cs),
(388,906,o),
(406,921,o),
(413,933,c),
(403,939,o),
(390,949,o),
(375,963,cs),
(359,976,o),
(347,984,o),
(339,987,c),
(345,996,o),
(359,1008,o),
(382,1022,cs),
(404,1035,o),
(421,1046,o),
(433,1054,cs),
(453,1066,o),
(472,1069,o),
(490,1063,cs),
(550,1042,o),
(688,1007,o),
(752,999,c),
(786,990,ls),
(808,984,o),
(816,974,o),
(809,961,cs),
(802,948,o),
(792,921,o),
(780,880,cs),
(779,877,o),
(775,865,o),
(769,846,cs),
(745,765,o),
(753,632,o),
(757,544,cs),
(757,533,o),
(758,525,o),
(759,520,cs),
(760,515,o),
(761,506,o),
(761,494,cs),
(761,458,o),
(762,424,o),
(763,393,cs),
(764,361,o),
(765,327,o),
(765,291,cs),
(765,224,o),
(707,151,o),
(666,151,cs),
(570,151,o),
(564,145,o),
(469,182,cs),
(358,226,o),
(310,337,o),
(310,465,cs),
(310,517,o),
(368,573,o),
(409,594,cs),
(434,606,o),
(542,649,o),
(546,684,c),
(535,683,o),
(519,677,o),
(499,665,cs),
(447,633,o),
(320,578,o),
(264,561,cs),
(247,556,o),
(229,549,o),
(208,541,cs),
(187,532,o),
(171,528,o),
(161,527,c),
(161,515,l),
(181,515,o),
(202,519,o),
(223,527,cs),
(244,534,o),
(264,540,o),
(281,544,c),
(254,504,o),
(230,469,o),
(207,439,cs),
(184,408,o),
(173,359,o),
(173,291,cs),
(173,252,o),
(184,216,o),
(205,183,cs),
(219,160,o),
(243,135,o),
(277,110,cs),
(296,95,o),
(312,87,o),
(323,86,c),
(360,78,o),
(389,71,o),
(410,66,cs),
(430,60,o),
(464,59,o),
(512,64,cs),
(557,69,o),
(592,77,o),
(617,88,cs),
(642,99,o),
(663,107,o),
(682,110,cs),
(698,112,o),
(716,119,o),
(736,130,cs),
(769,147,o),
(797,168,o),
(820,191,cs),
(856,227,o),
(856,230,o),
(883,273,cs),
(932,354,o),
(930,410,o),
(931,511,cs),
(931,525,o),
(930,536,o),
(929,545,cs),
(927,554,o),
(926,564,o),
(926,577,cs),
(927,722,ls),
(927,761,o),
(926,790,o),
(923,810,cs),
(920,829,o),
(927,865,o),
(944,916,cs),
(948,930,o),
(955,947,o),
(964,966,cs),
(992,1025,o),
(1016,1038,o),
(1072,1077,cs),
(1098,1094,o),
(1117,1104,o),
(1130,1109,cs),
(1142,1114,o),
(1151,1122,o),
(1158,1135,c),
(1147,1135,o),
(1134,1133,o),
(1119,1128,cs),
(1104,1123,o),
(1085,1119,o),
(1062,1116,c),
(951,1111,ls),
(890,1111,o),
(827,1123,o),
(761,1148,cs),
(694,1173,o),
(643,1185,o),
(608,1185,cs),
(597,1185,o),
(582,1178,o),
(563,1163,cs),
(543,1148,o),
(528,1138,o),
(519,1133,cs),
(507,1126,o),
(492,1116,o),
(473,1104,cs),
(454,1092,o),
(438,1085,o),
(426,1082,c)
);
}
);
width = 1178;
}
);
unicode = (82,114);
},
{
glyphname = S;
lastChange = "2023-05-15 16:51:02 +0000";
layers = (
{
layerId = m01;
shapes = (
{
closed = 1;
nodes = (
(343,525,l),
(343,198,l),
(330,204,o),
(321,208,o),
(314,210,c),
(314,454,ls),
(313,474,o),
(311,483,o),
(310,482,cs),
(308,481,o),
(311,495,o),
(318,525,c)
);
},
{
closed = 1;
nodes = (
(545,756,l),
(568,750,o),
(579,731,o),
(579,699,cs),
(579,666,o),
(578,641,o),
(575,623,cs),
(572,609,o),
(569,604,o),
(566,607,cs),
(563,610,o),
(556,613,o),
(545,616,c)
);
},
{
closed = 1;
nodes = (
(468,650,o),
(439,641,o),
(410,624,cs),
(381,607,o),
(353,593,o),
(327,581,cs),
(271,553,o),
(126,490,o),
(66,470,c),
(65,470,o),
(63,469,o),
(58,468,cs),
(53,466,o),
(50,465,o),
(50,465,c),
(45,462,o),
(41,459,o),
(40,454,c),
(49,449,o),
(63,451,o),
(84,460,cs),
(109,471,o),
(124,477,o),
(127,479,c),
(138,459,o),
(144,447,o),
(144,442,cs),
(144,111,ls),
(144,79,o),
(136,62,o),
(120,61,cs),
(104,59,o),
(90,49,o),
(78,32,c),
(230,44,o),
(238,45,o),
(406,12,cs),
(415,10,o),
(427,8,o),
(440,5,cs),
(453,2,o),
(463,0,o),
(471,0,cs),
(498,0,o),
(563,29,o),
(587,40,cs),
(683,80,o),
(707,103,o),
(804,55,cs),
(831,40,o),
(889,4,o),
(917,16,c),
(1125,173,l),
(1110,169,o),
(1103,166,o),
(1104,164,cs),
(1105,161,o),
(1093,160,o),
(1067,160,cs),
(1027,160,o),
(951,196,o),
(912,216,c),
(909,217,o),
(905,220,o),
(899,224,cs),
(889,229,o),
(880,233,o),
(872,238,cs),
(864,243,o),
(856,247,o),
(848,251,c),
(678,119,l),
(651,119,o),
(622,126,o),
(602,130,cs),
(558,138,o),
(432,161,o),
(392,181,c),
(392,512,l),
(420,504,o),
(494,476,o),
(514,452,cs),
(520,444,o),
(524,439,o),
(525,437,cs),
(526,435,o),
(546,445,o),
(583,466,cs),
(752,553,l),
(752,565,o),
(751,579,o),
(749,594,cs),
(746,609,o),
(746,627,o),
(749,648,cs),
(751,669,o),
(752,694,o),
(752,725,cs),
(752,755,o),
(752,782,o),
(752,806,cs),
(752,817,o),
(733,829,o),
(696,844,cs),
(659,858,o),
(631,871,o),
(613,882,cs),
(528,931,o),
(445,995,o),
(366,1074,cs),
(335,1103,o),
(287,1162,o),
(279,1206,cs),
(274,1230,o),
(284,1265,o),
(310,1312,cs),
(335,1359,o),
(353,1391,o),
(363,1410,c),
(346,1406,o),
(332,1393,o),
(321,1370,cs),
(310,1347,o),
(300,1329,o),
(293,1315,cs),
(283,1297,o),
(273,1279,o),
(263,1261,cs),
(253,1242,o),
(243,1224,o),
(232,1206,cs),
(220,1188,o),
(208,1172,o),
(197,1158,cs),
(185,1143,o),
(173,1128,o),
(161,1111,cs),
(134,1076,o),
(121,1074,o),
(165,1030,c),
(165,1029,o),
(166,1028,o),
(167,1028,c),
(191,1003,o),
(320,901,o),
(347,888,c),
(452,824,ls),
(481,805,o),
(495,791,o),
(496,782,cs),
(496,773,o),
(496,730,o),
(496,653,c)
);
},
{
closed = 1;
nodes = (
(777,713,o),
(796,705,o),
(814,691,cs),
(832,676,o),
(845,669,o),
(852,669,cs),
(869,669,o),
(938,722,o),
(947,735,c),
(930,744,o),
(912,755,o),
(893,769,cs),
(874,782,o),
(859,790,o),
(848,793,c),
(823,777,o),
(772,738,o),
(757,715,c)
);
}
);
width = 1145;
}
);
unicode = (83,115);
},
{
glyphname = T;
lastChange = "2023-05-15 17:01:13 +0000";
layers = (
{
layerId = m01;
shapes = (
{
closed = 1;
nodes = (
(320,1115,o),
(407,1087,o),
(439,1074,cs),
(473,1059,o),
(495,1038,o),
(505,1012,c),
(515,993,l),
(515,992,o),
(515,992,o),
(516,991,c),
(516,990,o),
(516,990,o),
(516,990,c),
(524,973,o),
(528,949,o),
(527,917,cs),
(526,884,o),
(525,855,o),
(525,830,cs),
(525,817,o),
(524,806,o),
(521,798,cs),
(518,789,o),
(517,781,o),
(518,772,cs),
(519,755,o),
(518,736,o),
(515,716,c),
(509,586,l),
(485,598,o),
(468,609,o),
(458,620,cs),
(447,630,o),
(432,644,o),
(411,661,cs),
(393,676,o),
(383,685,o),
(381,689,c),
(396,710,o),
(422,731,o),
(459,751,cs),
(495,771,o),
(506,789,o),
(491,805,c),
(486,809,o),
(485,810,o),
(486,808,cs),
(487,805,o),
(484,807,o),
(477,813,c),
(461,822,o),
(412,884,o),
(401,900,c),
(409,905,o),
(418,911,o),
(429,918,cs),
(439,925,o),
(449,930,o),
(459,933,c),
(459,936,o),
(458,945,o),
(455,958,c),
(439,954,o),
(420,933,o),
(409,922,cs),
(388,902,o),
(334,869,o),
(307,853,c),
(256,817,l),
(257,815,o),
(265,804,o),
(282,785,cs),
(292,773,o),
(307,758,o),
(327,741,cs),
(346,724,o),
(360,709,o),
(368,697,c),
(273,618,l),
(265,613,o),
(259,610,o),
(256,607,cs),
(248,601,o),
(244,594,o),
(244,586,c),
(253,583,o),
(264,577,o),
(278,567,cs),
(291,557,o),
(302,549,o),
(310,544,c),
(368,490,l),
(360,479,o),
(335,461,o),
(323,453,cs),
(308,441,o),
(275,416,o),
(323,416,c),
(327,433,o),
(352,453,o),
(368,466,c),
(368,466,o),
(370,467,o),
(370,467,c),
(408,500,ls),
(432,519,o),
(481,558,o),
(509,573,c),
(513,494,ls),
(513,446,o),
(496,266,o),
(476,226,c),
(428,237,o),
(388,242,o),
(355,242,cs),
(322,242,o),
(282,237,o),
(234,227,cs),
(217,223,o),
(204,217,o),
(195,208,cs),
(169,182,o),
(135,157,o),
(93,132,cs),
(51,107,o),
(27,91,o),
(20,85,c),
(28,85,o),
(38,88,o),
(51,94,cs),
(64,100,o),
(81,105,o),
(103,110,cs),
(202,130,o),
(276,120,o),
(376,96,cs),
(626,36,ls),
(735,12,o),
(852,-21,o),
(971,-1,cs),
(985,1,o),
(1006,13,o),
(1034,36,cs),
(1062,59,o),
(1084,75,o),
(1100,86,cs),
(1113,93,o),
(1121,100,o),
(1126,106,c),
(1030,101,ls),
(997,101,o),
(963,105,o),
(930,113,cs),
(896,120,o),
(863,127,o),
(831,134,cs),
(768,149,ls),
(721,159,o),
(680,170,o),
(643,182,cs),
(521,217,l),
(522,223,o),
(529,230,o),
(542,237,cs),
(547,240,o),
(551,242,o),
(555,244,cs),
(559,246,o),
(564,249,o),
(569,252,cs),
(592,265,o),
(611,275,o),
(624,280,cs),
(644,288,o),
(662,296,o),
(682,305,cs),
(698,312,o),
(725,324,o),
(745,329,c),
(745,337,l),
(670,337,o),
(667,418,o),
(666,478,c),
(675,853,l),
(676,860,o),
(678,868,o),
(681,877,cs),
(684,886,o),
(685,893,o),
(686,900,cs),
(688,917,o),
(688,935,o),
(687,955,cs),
(686,974,o),
(686,993,o),
(688,1011,cs),
(703,1107,l),
(664,1110,o),
(517,1188,o),
(473,1212,cs),
(450,1224,o),
(435,1228,o),
(430,1224,cs),
(425,1220,o),
(400,1203,o),
(356,1173,cs),
(337,1161,o),
(286,1130,o),
(277,1115,c)
);
}
);
width = 1146;
}
);
unicode = (84,116);
},
{
glyphname = U;
lastChange = "2023-05-15 16:51:02 +0000";
layers = (
{
layerId = m01;
shapes = (
{
closed = 1;
nodes = (
(316,954,o),
(256,988,o),
(203,1016,c),
(179,1000,o),
(83,932,o),
(71,913,c),
(99,912,o),
(123,906,o),
(144,895,cs),
(169,882,o),
(182,865,o),
(182,843,cs),
(182,396,ls),
(182,395,o),
(174,384,o),
(159,365,cs),
(91,273,ls),
(75,249,o),
(9,154,o),
(21,131,c),
(26,132,o),
(33,141,o),
(42,156,cs),
(62,192,o),
(117,260,o),
(146,291,cs),
(194,343,ls),
(202,351,o),
(210,359,o),
(217,367,cs),
(224,375,o),
(233,382,o),
(243,389,cs),
(356,471,l),
(366,477,o),
(377,484,o),
(389,492,cs),
(401,499,o),
(412,503,o),
(423,503,c),
(416,511,o),
(406,519,o),
(391,527,cs),
(376,535,o),
(367,545,o),
(363,556,cs),
(356,572,o),
(356,624,o),
(361,711,cs),
(366,798,o),
(365,859,o),
(356,896,c),
(366,901,o),
(378,905,o),
(393,908,cs),
(408,911,o),
(421,913,o),
(432,916,cs),
(462,924,o),
(491,934,o),
(519,947,cs),
(547,960,o),
(575,972,o),
(603,985,cs),
(614,990,o),
(620,993,o),
(621,996,cs),
(622,999,o),
(630,1000,o),
(646,1000,cs),
(738,1000,o),
(835,887,o),
(855,815,cs),
(884,706,o),
(868,537,o),
(841,437,cs),
(817,353,o),
(770,283,o),
(699,227,cs),
(635,171,ls),
(591,135,o),
(574,129,o),
(526,106,cs),
(507,97,o),
(498,86,o),
(497,73,c),
(527,75,o),
(549,85,o),
(564,102,cs),
(578,119,o),
(597,124,o),
(620,117,cs),
(653,106,o),
(718,84,o),
(729,48,c),
(740,49,o),
(752,56,o),
(763,71,cs),
(774,85,o),
(799,102,o),
(838,122,cs),
(924,172,l),
(931,177,o),
(937,187,o),
(940,201,c),
(874,173,l),
(873,173,o),
(865,179,o),
(852,192,c),
(832,208,o),
(790,236,o),
(766,239,c),
(767,246,o),
(775,254,o),
(789,265,cs),
(796,270,o),
(805,280,o),
(815,293,cs),
(909,407,ls),
(913,412,o),
(917,417,o),
(921,420,cs),
(924,423,o),
(928,427,o),
(932,432,cs),
(1052,583,o),
(1125,902,o),
(932,1054,cs),
(923,1061,o),
(910,1071,o),
(895,1084,cs),
(885,1092,o),
(876,1100,o),
(867,1108,cs),
(858,1116,o),
(857,1138,o),
(865,1174,cs),
(867,1183,o),
(869,1188,o),
(870,1191,cs),
(871,1193,o),
(873,1198,o),
(874,1207,c),
(851,1205,o),
(826,1190,o),
(797,1163,cs),
(768,1136,o),
(739,1111,o),
(710,1089,cs),
(659,1049,o),
(594,1005,o),
(533,985,cs),
(489,970,o),
(428,954,o),
(373,954,cs)
);
}
);
width = 1151;
}
);
unicode = (85,117);
},
{
glyphname = V;
lastChange = "2023-05-15 16:51:02 +0000";
layers = (
{
layerId = m01;
shapes = (
{
closed = 1;
nodes = (
(90,556,o),
(145,535,o),
(145,499,cs),
(145,477,o),
(145,429,o),
(146,355,cs),
(147,280,o),
(143,237,o),
(134,224,cs),
(128,216,o),
(120,209,o),
(111,203,cs),
(102,196,o),
(95,190,o),
(91,184,c),
(112,182,o),
(143,174,o),
(184,159,cs),
(224,144,o),
(249,138,o),
(260,140,cs),
(271,141,o),
(391,200,o),
(402,213,c),
(371,220,o),
(286,244,o),
(286,275,cs),
(286,490,ls),
(286,503,o),
(292,520,o),
(304,543,cs),
(307,548,o),
(311,555,o),
(317,563,cs),
(326,574,o),
(330,582,o),
(331,585,c),
(325,588,o),
(315,592,o),
(302,597,cs),
(289,601,o),
(271,609,o),
(250,620,cs),
(203,643,o),
(179,656,o),
(176,659,cs),
(173,662,o),
(152,646,o),
(111,612,cs),
(101,603,o),
(90,594,o),
(78,585,cs),
(65,576,o),
(56,566,o),
(50,556,c)
);
},
{
closed = 1;
nodes = (
(319,906,o),
(324,899,o),
(335,916,cs),
(346,933,o),
(372,941,o),
(414,941,cs),
(447,941,o),
(475,933,o),
(499,918,cs),
(523,903,o),
(552,889,o),
(586,877,cs),
(603,872,o),
(622,876,o),
(643,891,cs),
(664,905,o),
(695,928,o),
(734,961,cs),
(742,968,o),
(758,980,o),
(782,997,cs),
(806,1014,o),
(820,1026,o),
(824,1032,c),
(811,1028,o),
(805,1025,o),
(808,1023,cs),
(810,1021,o),
(797,1020,o),
(770,1020,cs),
(730,1020,o),
(682,1045,o),
(651,1058,c),
(635,1063,o),
(618,1072,o),
(599,1084,cs),
(590,1089,o),
(581,1094,o),
(572,1098,cs),
(563,1102,o),
(555,1106,o),
(546,1111,c),
(544,1109,o),
(540,1105,o),
(533,1100,cs),
(526,1095,o),
(524,1093,o),
(519,1089,cs),
(479,1056,o),
(347,944,o),
(319,937,c)
);
},
{
closed = 1;
nodes = (
(1028,455,o),
(980,462,o),
(928,486,cs),
(803,548,l),
(625,407,ls),
(601,389,o),
(587,379,o),
(583,378,cs),
(578,376,o),
(576,366,o),
(576,349,c),
(596,351,o),
(616,360,o),
(636,376,cs),
(656,391,o),
(695,385,o),
(753,357,cs),
(817,326,ls),
(846,314,o),
(865,310,o),
(876,315,cs),
(886,319,o),
(916,341,o),
(966,381,cs),
(975,388,o),
(994,403,o),
(1023,424,cs),
(1052,445,o),
(1069,459,o),
(1073,465,c)
);
}
);
width = 1093;
}
);
unicode = (86,118);
},
{
glyphname = W;
lastChange = "2023-05-15 16:51:02 +0000";
layers = (
{
layerId = m01;
shapes = (
{
closed = 1;
nodes = (
(541,909,l),
(572,900,o),
(587,882,o),
(587,855,cs),
(587,413,ls),
(587,400,o),
(550,368,o),
(541,363,c)
);
},
{
closed = 1;
nodes = (
(819,520,l),
(815,524,o),
(805,532,o),
(789,543,cs),
(773,554,o),
(764,564,o),
(762,575,c),
(761,909,l),
(842,931,ls),
(905,951,o),
(898,958,o),
(955,930,c),
(1038,850,l),
(1078,794,o),
(1078,799,o),
(1093,699,cs),
(1110,571,o),
(1087,340,o),
(983,240,cs),
(973,229,o),
(965,220,o),
(960,213,cs),
(954,205,o),
(945,196,o),
(933,187,cs),
(926,181,o),
(921,177,o),
(918,174,cs),
(915,171,o),
(911,166,o),
(905,161,cs),
(848,115,ls),
(804,83,o),
(773,66,o),
(754,63,cs),
(735,60,o),
(725,48,o),
(723,28,c),
(749,34,o),
(767,41,o),
(777,48,cs),
(787,55,o),
(800,64,o),
(815,73,cs),
(824,78,o),
(834,78,o),
(847,73,cs),
(860,68,o),
(870,65,o),
(876,64,cs),
(882,63,o),
(894,57,o),
(912,47,cs),
(924,39,o),
(933,31,o),
(940,24,cs),
(946,16,o),
(954,9,o),
(964,3,c),
(977,12,o),
(988,22,o),
(997,33,cs),
(1006,44,o),
(1029,58,o),
(1067,77,cs),
(1086,86,o),
(1106,97,o),
(1125,110,cs),
(1160,133,o),
(1156,128,o),
(1171,156,c),
(1150,153,o),
(1113,135,o),
(1100,127,c),
(1091,133,o),
(1081,141,o),
(1071,152,cs),
(1060,163,o),
(1045,173,o),
(1024,183,cs),
(1017,186,o),
(1012,188,o),
(1008,190,c),
(1003,191,o),
(998,194,o),
(993,197,c),
(996,202,o),
(1005,211,o),
(1019,224,cs),
(1033,237,o),
(1046,251,o),
(1059,268,cs),
(1094,313,o),
(1126,351,o),
(1154,382,cs),
(1181,412,o),
(1206,455,o),
(1229,511,cs),
(1305,699,o),
(1306,896,o),
(1146,1021,cs),
(1114,1045,o),
(1092,1062,o),
(1079,1071,cs),
(1066,1080,o),
(1064,1096,o),
(1072,1119,cs),
(1077,1133,o),
(1081,1146,o),
(1084,1157,c),
(1076,1155,o),
(1064,1145,o),
(1049,1127,cs),
(1033,1108,o),
(1022,1096,o),
(1015,1089,cs),
(996,1071,l),
(996,1070,o),
(995,1069,o),
(994,1069,c),
(994,1068,o),
(993,1067,o),
(992,1067,c),
(992,1066,o),
(991,1065,o),
(990,1065,c),
(953,1029,o),
(863,963,o),
(814,955,cs),
(767,948,o),
(705,979,o),
(669,999,c),
(657,1004,o),
(646,1009,o),
(635,1014,cs),
(624,1018,o),
(614,1023,o),
(604,1029,c),
(488,942,ls),
(480,935,o),
(476,930,o),
(475,926,c),
(500,921,l),
(500,529,o),
(489,372,o),
(504,342,c),
(480,342,o),
(362,375,o),
(329,386,cs),
(305,392,o),
(293,416,o),
(293,458,cs),
(293,743,o),
(287,862,o),
(298,892,cs),
(305,909,o),
(343,933,o),
(363,938,c),
(363,946,l),
(322,946,o),
(293,959,o),
(264,972,cs),
(248,978,o),
(234,985,o),
(221,993,cs),
(208,1001,o),
(195,1009,o),
(181,1017,c),
(161,1005,o),
(49,922,o),
(40,909,c),
(136,909,o),
(159,865,o),
(160,793,cs),
(160,782,o),
(161,775,o),
(163,771,c),
(164,766,o),
(165,759,o),
(165,748,cs),
(164,368,l),
(162,355,o),
(160,341,o),
(157,326,cs),
(154,311,o),
(152,297,o),
(152,284,c),
(181,291,o),
(215,287,o),
(254,274,cs),
(292,261,o),
(325,249,o),
(353,240,cs),
(371,234,o),
(390,226,o),
(411,216,cs),
(431,206,o),
(451,201,o),
(471,201,c),
(499,257,o),
(573,350,o),
(618,386,cs),
(650,411,o),
(676,433,o),
(713,456,cs)
);
},
{
closed = 1;
nodes = (
(821,511,l),
(819,520,l)
);
}
);
width = 1379;
}
);
unicode = (87,119);
},
{
glyphname = X;
lastChange = "2023-05-15 16:51:02 +0000";
layers = (
{
layerId = m01;
shapes = (
{
closed = 1;
nodes = (
(488,675,l),
(488,735,o),
(488,798,o),
(484,854,cs),
(484,858,o),
(488,962,o),
(495,978,c),
(497,985,o),
(499,990,o),
(502,993,cs),
(505,996,o),
(507,1002,o),
(509,1010,c),
(488,1015,o),
(447,1035,o),
(384,1070,cs),
(321,1104,o),
(283,1123,o),
(269,1126,c),
(265,1123,o),
(239,1106,o),
(192,1074,cs),
(145,1041,o),
(118,1024,o),
(111,1023,c),
(111,1014,l),
(115,1013,o),
(128,1011,o),
(150,1007,cs),
(191,1000,o),
(227,991,o),
(257,978,cs),
(334,946,o),
(350,911,o),
(343,828,cs),
(340,791,o),
(339,766,o),
(341,753,cs),
(342,739,o),
(343,713,o),
(343,675,c),
(328,676,o),
(312,684,o),
(293,697,cs),
(274,710,o),
(260,716,o),
(252,716,cs),
(245,716,o),
(227,703,o),
(197,678,cs),
(166,652,o),
(147,636,o),
(139,630,cs),
(115,610,o),
(47,552,o),
(20,547,c),
(20,538,o),
(21,529,o),
(24,518,c),
(32,520,o),
(39,523,o),
(44,527,cs),
(49,531,o),
(54,535,o),
(61,539,cs),
(111,562,o),
(158,559,o),
(202,528,cs),
(245,497,o),
(280,481,o),
(306,481,cs),
(311,481,o),
(318,483,o),
(325,488,cs),
(332,492,o),
(338,495,o),
(343,497,c),
(343,425,o),
(344,342,o),
(347,248,cs),
(349,153,o),
(336,73,o),
(308,7,cs),
(302,-7,o),
(292,-22,o),
(278,-37,cs),
(264,-52,o),
(253,-66,o),
(244,-78,cs),
(232,-91,o),
(181,-150,o),
(177,-165,c),
(190,-162,o),
(225,-138,o),
(236,-129,cs),
(280,-89,o),
(323,-36,o),
(365,29,c),
(415,119,ls),
(427,144,o),
(453,191,o),
(472,211,cs),
(478,218,ls),
(494,234,o),
(511,243,o),
(529,245,c),
(527,253,o),
(525,258,o),
(522,259,cs),
(519,260,o),
(516,264,o),
(511,272,cs),
(482,321,o),
(484,334,o),
(484,390,cs),
(484,422,o),
(484,454,o),
(484,487,cs),
(484,519,o),
(484,551,o),
(484,584,c),
(488,581,o),
(491,574,o),
(493,564,cs),
(500,516,o),
(516,438,o),
(536,397,cs),
(548,371,o),
(560,351,o),
(573,337,cs),
(586,322,o),
(599,307,o),
(613,291,cs),
(670,218,o),
(779,158,o),
(866,122,cs),
(975,75,o),
(974,92,o),
(1010,145,cs),
(1022,164,o),
(1084,234,o),
(1104,250,cs),
(1125,266,o),
(1137,276,o),
(1140,281,cs),
(1143,285,o),
(1144,292,o),
(1142,303,c),
(1120,291,o),
(1103,277,o),
(1092,261,cs),
(1081,245,o),
(1063,238,o),
(1039,241,cs),
(954,249,o),
(898,265,o),
(829,313,cs),
(769,352,o),
(755,373,o),
(712,420,cs),
(657,477,o),
(617,570,o),
(601,647,cs),
(577,758,o),
(589,849,o),
(638,922,cs),
(658,954,o),
(673,976,o),
(684,988,cs),
(720,1029,o),
(820,1139,o),
(873,1139,cs),
(882,1139,o),
(895,1133,o),
(913,1122,cs),
(931,1111,o),
(944,1103,o),
(953,1099,c),
(1012,1066,o),
(1046,1054,o),
(1053,1062,cs),
(1060,1069,o),
(1095,1098,o),
(1158,1147,cs),
(1165,1152,o),
(1169,1158,o),
(1171,1163,c),
(1128,1163,o),
(1087,1178,o),
(1047,1207,cs),
(1006,1236,o),
(980,1250,o),
(968,1250,cs),
(964,1250,o),
(940,1233,o),
(896,1200,cs),
(851,1166,o),
(825,1146,o),
(817,1140,cs),
(809,1135,o),
(797,1125,o),
(781,1111,cs),
(707,1052,ls),
(612,976,o),
(558,895,o),
(513,786,cs),
(494,741,o),
(492,732,o),
(492,675,c)
);
}
);
width = 1191;
}
);
unicode = (88,120);
},
{
glyphname = Y;
lastChange = "2023-05-15 16:59:06 +0000";
layers = (
{
layerId = m01;
shapes = (
{
closed = 1;
nodes = (
(429,700,ls),
(429,708,o),
(440,712,o),
(462,712,cs),
(529,712,o),
(621,673,o),
(676,641,cs),
(741,601,o),
(731,619,o),
(731,555,cs),
(731,517,o),
(701,487,o),
(640,465,cs),
(579,442,o),
(532,425,o),
(501,413,cs),
(481,405,o),
(453,383,o),
(436,426,cs),
(431,437,o),
(429,458,o),
(429,489,cs)
);
},
{
closed = 1;
nodes = (
(181,1137,o),
(198,1131,o),
(222,1122,cs),
(248,1113,o),
(267,1109,o),
(280,1109,c),
(284,749,ls),
(284,732,o),
(285,718,o),
(286,707,cs),
(287,696,o),
(288,683,o),
(288,667,cs),
(288,651,o),
(288,636,o),
(288,621,cs),
(288,606,o),
(288,591,o),
(288,576,cs),
(288,549,o),
(289,512,o),
(291,465,cs),
(293,417,o),
(293,383,o),
(290,363,cs),
(287,345,o),
(283,336,o),
(279,336,cs),
(275,335,o),
(266,328,o),
(252,314,cs),
(247,309,o),
(243,306,o),
(240,303,cs),
(237,300,o),
(233,296,o),
(229,292,cs),
(228,291,o),
(227,290,o),
(226,290,c),
(208,271,ls),
(148,208,o),
(71,87,o),
(96,-5,cs),
(103,-32,o),
(117,-48,o),
(139,-53,c),
(124,6,o),
(117,33,o),
(150,109,cs),
(159,131,o),
(177,157,o),
(204,188,cs),
(217,204,o),
(227,216,o),
(235,223,cs),
(346,311,l),
(395,342,o),
(455,371,o),
(524,397,cs),
(556,409,o),
(707,456,o),
(731,456,c),
(731,95,l),
(730,82,o),
(730,77,o),
(731,79,cs),
(732,81,o),
(729,81,o),
(723,79,c),
(723,58,l),
(846,3,ls),
(858,-2,o),
(872,0,o),
(888,9,cs),
(918,24,o),
(944,39,o),
(965,52,cs),
(981,60,o),
(1026,84,o),
(1033,104,c),
(1023,103,o),
(1017,102,o),
(1016,101,cs),
(1014,100,o),
(1005,100,o),
(988,100,cs),
(956,100,o),
(880,135,o),
(880,162,cs),
(880,555,ls),
(880,595,o),
(885,627,o),
(896,651,cs),
(907,674,o),
(912,689,o),
(913,696,c),
(886,696,o),
(858,702,o),
(829,715,c),
(753,743,ls),
(621,788,o),
(624,777,o),
(632,865,c),
(539,792,l),
(519,780,o),
(449,738,o),
(429,737,c),
(429,751,o),
(430,762,o),
(431,770,cs),
(432,778,o),
(433,789,o),
(433,803,cs),
(437,1010,ls),
(437,1034,o),
(437,1058,o),
(437,1081,cs),
(436,1104,o),
(442,1121,o),
(454,1134,cs),
(464,1143,o),
(479,1152,o),
(499,1159,cs),
(553,1180,l),
(544,1180,o),
(538,1181,o),
(536,1182,cs),
(534,1183,o),
(529,1183,o),
(520,1184,cs),
(460,1187,o),
(416,1187,o),
(356,1218,cs),
(338,1227,o),
(328,1233,o),
(326,1236,cs),
(324,1239,o),
(318,1243,o),
(309,1250,c),
(298,1244,o),
(279,1230,o),
(251,1207,cs),
(222,1184,o),
(201,1168,o),
(187,1157,cs),
(178,1151,o),
(173,1145,o),
(172,1139,c)
);
},
{
closed = 1;
nodes = (
(24,804,o),
(33,794,o),
(49,780,c),
(139,687,l),
(133,683,o),
(123,675,o),
(109,663,cs),
(103,658,o),
(98,654,o),
(94,651,cs),
(90,647,o),
(85,643,o),
(80,639,cs),
(54,618,o),
(36,603,o),
(25,594,cs),
(14,585,o),
(23,572,o),
(51,554,cs),
(75,538,o),
(131,500,o),
(139,476,c),
(76,432,l),
(70,426,o),
(69,417,o),
(73,406,c),
(82,406,o),
(100,419,o),
(126,444,cs),
(165,484,o),
(209,519,o),
(256,550,cs),
(269,559,o),
(277,568,o),
(280,576,c),
(247,593,o),
(223,610,o),
(206,629,cs),
(189,648,o),
(170,663,o),
(147,675,c),
(159,694,o),
(221,740,o),
(244,756,c),
(254,765,o),
(259,769,o),
(260,770,c),
(260,770,o),
(261,772,o),
(263,775,c),
(264,778,o),
(265,779,o),
(265,780,cs),
(266,783,o),
(265,787,o),
(263,791,cs),
(257,802,o),
(253,805,o),
(251,800,cs),
(249,794,o),
(237,805,o),
(215,834,cs),
(206,845,o),
(196,856,o),
(187,866,cs),
(177,876,o),
(172,885,o),
(172,894,c),
(230,927,l),
(226,935,o),
(223,943,o),
(222,952,c),
(221,951,o),
(213,944,o),
(200,933,cs),
(155,895,ls),
(142,884,o),
(35,815,o),
(23,811,c)
);
}
);
width = 1053;
}
);
unicode = (89,121);
},
{
glyphname = Z;
lastChange = "2023-05-15 16:51:02 +0000";
layers = (
{
layerId = m01;
shapes = (
{
closed = 1;
nodes = (
(273,1049,o),
(495,907,o),
(547,878,cs),
(567,865,o),
(587,852,o),
(607,838,cs),
(640,814,o),
(693,780,o),
(704,737,c),
(699,737,o),
(695,737,o),
(690,736,cs),
(685,735,o),
(681,735,o),
(678,735,cs),
(542,736,ls),
(530,736,o),
(521,737,o),
(514,739,cs),
(507,740,o),
(497,741,o),
(484,741,cs),
(437,741,o),
(315,741,o),
(270,745,cs),
(263,746,o),
(259,747,o),
(257,748,cs),
(254,749,o),
(249,749,o),
(240,749,c),
(231,735,o),
(219,718,o),
(205,698,cs),
(190,677,o),
(180,659,o),
(173,643,cs),
(156,604,o),
(134,568,o),
(109,533,cs),
(32,429,o),
(-2,434,o),
(122,342,cs),
(166,308,o),
(201,283,o),
(227,268,cs),
(252,252,o),
(287,230,o),
(331,202,cs),
(371,175,o),
(455,127,o),
(468,79,cs),
(473,61,o),
(475,35,o),
(472,0,c),
(484,1,o),
(497,11,o),
(512,31,cs),
(527,51,o),
(538,66,o),
(545,76,cs),
(554,87,o),
(565,102,o),
(576,119,cs),
(608,166,l),
(632,192,o),
(670,190,o),
(723,161,cs),
(776,131,o),
(812,116,o),
(832,116,cs),
(856,116,o),
(919,171,o),
(939,187,cs),
(1015,244,ls),
(1027,252,o),
(1035,259,o),
(1039,265,c),
(1022,261,o),
(1006,257,o),
(989,252,cs),
(972,247,o),
(937,258,o),
(882,286,cs),
(822,315,o),
(790,331,o),
(785,334,cs),
(780,337,o),
(764,326,o),
(736,303,cs),
(604,199,l),
(470,263,ls),
(457,270,o),
(437,283,o),
(410,302,cs),
(373,327,o),
(331,358,o),
(299,390,cs),
(287,402,o),
(280,408,o),
(277,409,c),
(274,409,o),
(265,419,o),
(249,439,cs),
(194,507,o),
(138,539,o),
(190,638,c),
(212,638,o),
(232,639,o),
(250,640,cs),
(267,641,o),
(288,642,o),
(311,642,cs),
(612,637,l),
(640,634,o),
(654,627,o),
(653,617,cs),
(652,606,o),
(672,622,o),
(713,665,cs),
(718,671,o),
(722,676,o),
(725,680,cs),
(728,683,o),
(732,688,o),
(738,694,cs),
(762,719,o),
(849,817,o),
(849,848,cs),
(849,855,o),
(840,862,o),
(821,870,cs),
(811,875,o),
(800,881,o),
(788,887,cs),
(699,924,o),
(674,943,o),
(594,1004,cs),
(545,1040,o),
(406,1164,o),
(406,1229,cs),
(406,1246,o),
(410,1264,o),
(418,1283,c),
(484,1415,l),
(468,1407,o),
(457,1396,o),
(450,1383,cs),
(443,1370,o),
(436,1355,o),
(428,1340,cs),
(420,1325,o),
(412,1310,o),
(404,1296,cs),
(396,1282,o),
(388,1268,o),
(381,1254,cs),
(369,1231,o),
(348,1200,o),
(318,1161,cs),
(288,1122,o),
(273,1101,o),
(273,1097,cs)
);
}
);
width = 1059;
}
);
unicode = (90,122);
},
{
glyphname = zero;
lastChange = "2023-06-30 07:59:07 +0000";
layers = (
{
layerId = m01;
shapes = (
{
closed = 1;
nodes = (
(451,1257,o),
(367,1156,o),
(255,1104,cs),
(142,1051,o),
(50,1073,o),
(50,1034,cs),
(50,989,o),
(138,1010,o),
(162,987,cs),
(182,968,o),
(176,957,o),
(176,578,cs),
(176,198,o),
(175,152,o),
(175,128,cs),
(175,104,o),
(171,77,o),
(184,67,cs),
(197,58,o),
(425,78,o),
(508,49,cs),
(590,19,o),
(651,-10,o),
(678,-8,cs),
(706,-7,o),
(746,76,o),
(838,129,cs),
(929,182,o),
(1009,226,o),
(1009,247,cs),
(1009,260,o),
(994,268,o),
(994,303,cs),
(994,338,o),
(999,383,o),
(999,638,cs),
(999,894,o),
(1000,928,o),
(1000,951,cs),
(1000,974,o),
(997,994,o),
(1010,1002,cs),
(1023,1011,o),
(1114,1015,o),
(1107,1045,cs),
(1100,1076,o),
(1048,1060,o),
(1000,1087,cs),
(953,1115,o),
(874,1219,o),
(819,1231,cs),
(764,1243,o),
(556,1222,o),
(524,1237,cs),
(508,1244,o),
(487,1257,o),
(472,1257,cs)
);
},
{
closed = 1;
nodes = (
(314,1052,o),
(321,1060,o),
(343,1077,cs),
(361,1093,o),
(383,1104,o),
(543,1104,cs),
(689,1104,o),
(734,1098,o),
(734,1098,cs),
(734,1098,o),
(734,148,o),
(734,148,c),
(691,151,o),
(643,149,o),
(604,157,cs),
(566,164,o),
(458,179,o),
(414,177,c),
(314,182,l),
(314,955,l)
);
},
{
closed = 1;
nodes = (
(806,1075,l),
(847,1052,l),
(847,260,l),
(806,227,l)
);
}
);
width = 1157;
}
);
unicode = 48;
},
{
glyphname = one;
lastChange = "2023-06-30 08:02:38 +0000";
layers = (
{
layerId = m01;
shapes = (
{
closed = 1;
nodes = (
(272,1273,o),
(233,1213,o),
(221,1198,cs),
(208,1184,o),
(197,1152,o),
(156,1103,cs),
(114,1055,o),
(39,999,o),
(51,982,cs),
(63,966,o),
(141,992,o),
(178,1011,cs),
(214,1030,o),
(267,1069,o),
(274,1059,c),
(274,138,l),
(274,138,o),
(234,129,o),
(221,100,cs),
(207,71,o),
(201,47,o),
(186,37,cs),
(172,27,o),
(128,11,o),
(137,0,c),
(571,1,l),
(589,20,o),
(588,30,o),
(623,56,cs),
(658,82,o),
(728,119,o),
(722,131,cs),
(717,143,o),
(692,142,o),
(667,131,c),
(527,132,l),
(527,1097,l),
(537,1109,o),
(595,1099,o),
(615,1103,cs),
(635,1108,o),
(664,1123,o),
(663,1136,cs),
(662,1150,o),
(567,1193,o),
(471,1205,cs),
(375,1217,o),
(353,1215,o),
(345,1222,cs),
(337,1230,o),
(325,1273,o),
(303,1273,cs)
);
},
{
closed = 1;
nodes = (
(373,1100,l),
(373,119,l),
(336,119,l),
(336,1100,l)
);
}
);
width = 772;
}
);
unicode = 49;
},
{
glyphname = two;
lastChange = "2023-07-28 22:35:12 +0000";
layers = (
{
layerId = m01;
shapes = (
{
closed = 1;
nodes = (
(140,911,o),
(40,864,o),
(51,843,cs),
(62,822,o),
(104,837,o),
(170,871,cs),
(236,905,o),
(278,923,o),
(283,947,cs),
(287,971,o),
(266,963,o),
(267,996,cs),
(272,1099,o),
(354,1213,o),
(429,1214,cs),
(503,1216,o),
(527,1205,o),
(570,1166,c),
(579,584,l),
(528,563,l),
(441,612,l),
(60,198,l),
(60,169,l),
(70,165,l),
(75,150,l),
(106,169,l),
(106,0,l),
(598,0,l),
(610,12,o),
(635,47,o),
(650,47,cs),
(695,47,o),
(749,-22,o),
(773,-22,cs),
(797,-22,o),
(900,73,o),
(915,85,cs),
(946,111,o),
(928,131,o),
(899,106,cs),
(885,94,o),
(873,80,o),
(865,80,cs),
(856,80,o),
(773,156,o),
(730,156,cs),
(698,156,o),
(670,106,o),
(649,106,cs),
(367,105,l),
(365,383,l),
(442,462,l),
(593,424,l),
(825,666,l),
(830,713,o),
(873,807,o),
(887,855,cs),
(900,902,o),
(888,1013,o),
(839,1079,cs),
(791,1145,o),
(684,1275,o),
(493,1275,cs),
(374,1275,o),
(284,1236,o),
(212,1167,cs),
(141,1098,o),
(123,1049,o),
(123,1014,cs),
(123,979,o),
(142,955,o),
(141,933,cs)
);
},
{
closed = 1;
nodes = (
(649,1076,l),
(649,1076,o),
(707,996,o),
(707,886,cs),
(707,730,o),
(652,689,o),
(652,689,cs)
);
},
{
closed = 1;
nodes = (
(293,340,l),
(293,101,l),
(273,95,l),
(242,114,l),
(242,272,l)
);
},
{
closed = 1;
nodes = (
(899,807,o),
(834,752,o),
(830,741,cs),
(827,729,o),
(891,672,o),
(902,672,cs),
(913,672,o),
(983,732,o),
(986,740,cs),
(988,750,o),
(921,807,o),
(911,807,cs)
);
}
);
width = 1036;
}
);
unicode = 50;
},
{
glyphname = three;
lastChange = "2023-06-30 08:02:38 +0000";
layers = (
{
layerId = m01;
shapes = (
{
closed = 1;
nodes = (
(361,1277,o),
(338,1230,o),
(277,1183,cs),
(215,1135,o),
(139,1105,o),
(149,1083,cs),
(160,1058,o),
(246,1122,o),
(309,1122,cs),
(328,1122,o),
(366,1095,o),
(435,1055,cs),
(504,1016,o),
(584,991,o),
(584,975,c),
(234,605,l),
(533,668,o),
(651,684,o),
(651,595,cs),
(651,105,l),
(651,94,o),
(627,85,o),
(521,85,cs),
(415,85,o),
(416,86,o),
(404,93,cs),
(392,99,o),
(218,242,o),
(218,265,cs),
(218,288,o),
(234,292,o),
(246,314,cs),
(258,336,o),
(251,348,o),
(261,369,cs),
(293,438,l),
(50,273,l),
(70,242,l),
(147,287,l),
(134,258,o),
(107,211,o),
(108,197,cs),
(110,183,o),
(317,2,o),
(346,-2,cs),
(360,-4,o),
(438,1,o),
(523,0,cs),
(612,-2,o),
(708,-10,o),
(727,-4,cs),
(745,1,o),
(773,22,o),
(809,60,cs),
(845,97,o),
(852,107,o),
(855,118,cs),
(859,129,o),
(858,153,o),
(864,163,cs),
(871,173,o),
(897,188,o),
(900,203,cs),
(904,217,o),
(853,242,o),
(853,354,cs),
(853,467,o),
(884,562,o),
(880,573,c),
(607,799,l),
(875,1166,o),
(946,1211,o),
(922,1230,cs),
(908,1241,o),
(840,1181,o),
(628,1181,cs),
(470,1181,o),
(408,1277,o),
(376,1277,c)
);
},
{
closed = 1;
nodes = (
(712,515,l),
(753,475,l),
(753,187,l),
(737,141,l),
(712,145,l)
);
}
);
width = 976;
}
);
unicode = 51;
},
{
glyphname = four;
lastChange = "2023-06-30 08:02:38 +0000";
layers = (
{
layerId = m01;
shapes = (
{
closed = 1;
nodes = (
(221,1295,o),
(214,1257,o),
(145,1201,cs),
(76,1145,o),
(46,1129,o),
(50,1122,cs),
(55,1115,o),
(125,1131,o),
(140,1102,cs),
(155,1073,o),
(169,999,o),
(169,872,cs),
(169,746,o),
(88,632,o),
(94,621,cs),
(100,611,o),
(167,615,o),
(216,596,cs),
(266,578,o),
(349,489,o),
(379,489,cs),
(409,489,o),
(510,573,o),
(583,573,cs),
(583,573,o),
(583,397,o),
(583,257,cs),
(583,117,o),
(583,19,o),
(583,-1,cs),
(583,-1,o),
(537,-35,o),
(544,-43,cs),
(551,-51,o),
(581,-28,o),
(654,36,cs),
(728,101,o),
(745,111,o),
(745,119,cs),
(745,127,o),
(717,140,o),
(717,151,cs),
(717,575,l),
(924,575,ls),
(939,575,o),
(952,578,o),
(962,589,c),
(1037,661,l),
(1045,670,o),
(1036,677,o),
(1022,677,cs),
(707,677,l),
(707,980,ls),
(707,1054,o),
(770,1125,o),
(819,1140,cs),
(867,1155,o),
(866,1163,o),
(821,1163,cs),
(776,1163,o),
(770,1169,o),
(762,1178,cs),
(669,1284,l),
(654,1300,o),
(650,1300,o),
(637,1285,c),
(517,1163,l),
(500,1145,o),
(470,1137,o),
(510,1137,cs),
(521,1137,o),
(527,1126,o),
(527,1119,cs),
(527,677,ls),
(527,657,o),
(427,621,o),
(407,621,cs),
(387,621,o),
(269,701,o),
(269,717,cs),
(269,1077,ls),
(269,1103,o),
(307,1138,o),
(332,1141,cs),
(358,1145,o),
(352,1152,o),
(333,1173,cs),
(315,1195,o),
(278,1232,o),
(268,1255,cs),
(257,1278,o),
(262,1295,o),
(248,1295,cs)
);
},
{
closed = 1;
nodes = (
(566,1101,l),
(606,1077,l),
(606,695,l),
(566,685,l)
);
}
);
width = 1090;
}
);
unicode = 52;
},
